<mxfile host="app.diagrams.net" agent="Mozilla/5.0 (Windows NT 10.0; Win64; x64) AppleWebKit/537.36 (KHTML, like Gecko) Chrome/129.0.0.0 Safari/537.36" version="24.7.17">
  <diagram id="R2lEEEUBdFMjLlhIrx00" name="Page-1">
    <mxGraphModel dx="1593" dy="829" grid="1" gridSize="10" guides="1" tooltips="1" connect="1" arrows="1" fold="1" page="1" pageScale="1" pageWidth="850" pageHeight="1100" math="0" shadow="0" extFonts="Permanent Marker^https://fonts.googleapis.com/css?family=Permanent+Marker">
      <root>
        <mxCell id="0" />
        <mxCell id="1" parent="0" />
        <mxCell id="3Ezc2zgL5UM-MFxwJ3yi-92" value="Charge" style="shape=table;startSize=30;container=1;collapsible=1;childLayout=tableLayout;fixedRows=1;rowLines=0;fontStyle=1;align=center;resizeLast=1;html=1;" parent="1" vertex="1">
          <mxGeometry x="260" y="350" width="220" height="180" as="geometry" />
        </mxCell>
        <mxCell id="3Ezc2zgL5UM-MFxwJ3yi-93" value="" style="shape=tableRow;horizontal=0;startSize=0;swimlaneHead=0;swimlaneBody=0;fillColor=none;collapsible=0;dropTarget=0;points=[[0,0.5],[1,0.5]];portConstraint=eastwest;top=0;left=0;right=0;bottom=1;" parent="3Ezc2zgL5UM-MFxwJ3yi-92" vertex="1">
          <mxGeometry y="30" width="220" height="30" as="geometry" />
        </mxCell>
        <mxCell id="3Ezc2zgL5UM-MFxwJ3yi-94" value="PK" style="shape=partialRectangle;connectable=0;fillColor=none;top=0;left=0;bottom=0;right=0;fontStyle=1;overflow=hidden;whiteSpace=wrap;html=1;" parent="3Ezc2zgL5UM-MFxwJ3yi-93" vertex="1">
          <mxGeometry width="30" height="30" as="geometry">
            <mxRectangle width="30" height="30" as="alternateBounds" />
          </mxGeometry>
        </mxCell>
        <mxCell id="3Ezc2zgL5UM-MFxwJ3yi-95" value="charge_id" style="shape=partialRectangle;connectable=0;fillColor=none;top=0;left=0;bottom=0;right=0;align=left;spacingLeft=6;fontStyle=5;overflow=hidden;whiteSpace=wrap;html=1;" parent="3Ezc2zgL5UM-MFxwJ3yi-93" vertex="1">
          <mxGeometry x="30" width="130" height="30" as="geometry">
            <mxRectangle width="130" height="30" as="alternateBounds" />
          </mxGeometry>
        </mxCell>
        <mxCell id="1kDg9G0LtiiuNaxr3lza-365" value="number" style="shape=partialRectangle;connectable=0;fillColor=none;top=0;left=0;bottom=0;right=0;align=left;spacingLeft=6;fontStyle=0;overflow=hidden;whiteSpace=wrap;html=1;" vertex="1" parent="3Ezc2zgL5UM-MFxwJ3yi-93">
          <mxGeometry x="160" width="60" height="30" as="geometry">
            <mxRectangle width="60" height="30" as="alternateBounds" />
          </mxGeometry>
        </mxCell>
        <mxCell id="3Ezc2zgL5UM-MFxwJ3yi-96" value="" style="shape=tableRow;horizontal=0;startSize=0;swimlaneHead=0;swimlaneBody=0;fillColor=none;collapsible=0;dropTarget=0;points=[[0,0.5],[1,0.5]];portConstraint=eastwest;top=0;left=0;right=0;bottom=0;" parent="3Ezc2zgL5UM-MFxwJ3yi-92" vertex="1">
          <mxGeometry y="60" width="220" height="30" as="geometry" />
        </mxCell>
        <mxCell id="3Ezc2zgL5UM-MFxwJ3yi-97" value="" style="shape=partialRectangle;connectable=0;fillColor=none;top=0;left=0;bottom=0;right=0;editable=1;overflow=hidden;whiteSpace=wrap;html=1;" parent="3Ezc2zgL5UM-MFxwJ3yi-96" vertex="1">
          <mxGeometry width="30" height="30" as="geometry">
            <mxRectangle width="30" height="30" as="alternateBounds" />
          </mxGeometry>
        </mxCell>
        <mxCell id="3Ezc2zgL5UM-MFxwJ3yi-98" value="adult_fee" style="shape=partialRectangle;connectable=0;fillColor=none;top=0;left=0;bottom=0;right=0;align=left;spacingLeft=6;overflow=hidden;whiteSpace=wrap;html=1;fontStyle=1" parent="3Ezc2zgL5UM-MFxwJ3yi-96" vertex="1">
          <mxGeometry x="30" width="130" height="30" as="geometry">
            <mxRectangle width="130" height="30" as="alternateBounds" />
          </mxGeometry>
        </mxCell>
        <mxCell id="1kDg9G0LtiiuNaxr3lza-366" value="money" style="shape=partialRectangle;connectable=0;fillColor=none;top=0;left=0;bottom=0;right=0;align=left;spacingLeft=6;overflow=hidden;whiteSpace=wrap;html=1;fontStyle=0" vertex="1" parent="3Ezc2zgL5UM-MFxwJ3yi-96">
          <mxGeometry x="160" width="60" height="30" as="geometry">
            <mxRectangle width="60" height="30" as="alternateBounds" />
          </mxGeometry>
        </mxCell>
        <mxCell id="3Ezc2zgL5UM-MFxwJ3yi-99" value="" style="shape=tableRow;horizontal=0;startSize=0;swimlaneHead=0;swimlaneBody=0;fillColor=none;collapsible=0;dropTarget=0;points=[[0,0.5],[1,0.5]];portConstraint=eastwest;top=0;left=0;right=0;bottom=0;" parent="3Ezc2zgL5UM-MFxwJ3yi-92" vertex="1">
          <mxGeometry y="90" width="220" height="30" as="geometry" />
        </mxCell>
        <mxCell id="3Ezc2zgL5UM-MFxwJ3yi-100" value="" style="shape=partialRectangle;connectable=0;fillColor=none;top=0;left=0;bottom=0;right=0;editable=1;overflow=hidden;whiteSpace=wrap;html=1;" parent="3Ezc2zgL5UM-MFxwJ3yi-99" vertex="1">
          <mxGeometry width="30" height="30" as="geometry">
            <mxRectangle width="30" height="30" as="alternateBounds" />
          </mxGeometry>
        </mxCell>
        <mxCell id="3Ezc2zgL5UM-MFxwJ3yi-101" value="senior_discount" style="shape=partialRectangle;connectable=0;fillColor=none;top=0;left=0;bottom=0;right=0;align=left;spacingLeft=6;overflow=hidden;whiteSpace=wrap;html=1;" parent="3Ezc2zgL5UM-MFxwJ3yi-99" vertex="1">
          <mxGeometry x="30" width="130" height="30" as="geometry">
            <mxRectangle width="130" height="30" as="alternateBounds" />
          </mxGeometry>
        </mxCell>
        <mxCell id="1kDg9G0LtiiuNaxr3lza-367" value="float" style="shape=partialRectangle;connectable=0;fillColor=none;top=0;left=0;bottom=0;right=0;align=left;spacingLeft=6;overflow=hidden;whiteSpace=wrap;html=1;" vertex="1" parent="3Ezc2zgL5UM-MFxwJ3yi-99">
          <mxGeometry x="160" width="60" height="30" as="geometry">
            <mxRectangle width="60" height="30" as="alternateBounds" />
          </mxGeometry>
        </mxCell>
        <mxCell id="3Ezc2zgL5UM-MFxwJ3yi-102" value="" style="shape=tableRow;horizontal=0;startSize=0;swimlaneHead=0;swimlaneBody=0;fillColor=none;collapsible=0;dropTarget=0;points=[[0,0.5],[1,0.5]];portConstraint=eastwest;top=0;left=0;right=0;bottom=0;" parent="3Ezc2zgL5UM-MFxwJ3yi-92" vertex="1">
          <mxGeometry y="120" width="220" height="30" as="geometry" />
        </mxCell>
        <mxCell id="3Ezc2zgL5UM-MFxwJ3yi-103" value="" style="shape=partialRectangle;connectable=0;fillColor=none;top=0;left=0;bottom=0;right=0;editable=1;overflow=hidden;whiteSpace=wrap;html=1;" parent="3Ezc2zgL5UM-MFxwJ3yi-102" vertex="1">
          <mxGeometry width="30" height="30" as="geometry">
            <mxRectangle width="30" height="30" as="alternateBounds" />
          </mxGeometry>
        </mxCell>
        <mxCell id="3Ezc2zgL5UM-MFxwJ3yi-104" value="youth_discount" style="shape=partialRectangle;connectable=0;fillColor=none;top=0;left=0;bottom=0;right=0;align=left;spacingLeft=6;overflow=hidden;whiteSpace=wrap;html=1;" parent="3Ezc2zgL5UM-MFxwJ3yi-102" vertex="1">
          <mxGeometry x="30" width="130" height="30" as="geometry">
            <mxRectangle width="130" height="30" as="alternateBounds" />
          </mxGeometry>
        </mxCell>
        <mxCell id="1kDg9G0LtiiuNaxr3lza-368" value="float" style="shape=partialRectangle;connectable=0;fillColor=none;top=0;left=0;bottom=0;right=0;align=left;spacingLeft=6;overflow=hidden;whiteSpace=wrap;html=1;" vertex="1" parent="3Ezc2zgL5UM-MFxwJ3yi-102">
          <mxGeometry x="160" width="60" height="30" as="geometry">
            <mxRectangle width="60" height="30" as="alternateBounds" />
          </mxGeometry>
        </mxCell>
        <mxCell id="1kDg9G0LtiiuNaxr3lza-358" style="shape=tableRow;horizontal=0;startSize=0;swimlaneHead=0;swimlaneBody=0;fillColor=none;collapsible=0;dropTarget=0;points=[[0,0.5],[1,0.5]];portConstraint=eastwest;top=0;left=0;right=0;bottom=0;" vertex="1" parent="3Ezc2zgL5UM-MFxwJ3yi-92">
          <mxGeometry y="150" width="220" height="30" as="geometry" />
        </mxCell>
        <mxCell id="1kDg9G0LtiiuNaxr3lza-359" style="shape=partialRectangle;connectable=0;fillColor=none;top=0;left=0;bottom=0;right=0;editable=1;overflow=hidden;whiteSpace=wrap;html=1;" vertex="1" parent="1kDg9G0LtiiuNaxr3lza-358">
          <mxGeometry width="30" height="30" as="geometry">
            <mxRectangle width="30" height="30" as="alternateBounds" />
          </mxGeometry>
        </mxCell>
        <mxCell id="1kDg9G0LtiiuNaxr3lza-360" value="children_age_for_free" style="shape=partialRectangle;connectable=0;fillColor=none;top=0;left=0;bottom=0;right=0;align=left;spacingLeft=6;overflow=hidden;whiteSpace=wrap;html=1;" vertex="1" parent="1kDg9G0LtiiuNaxr3lza-358">
          <mxGeometry x="30" width="130" height="30" as="geometry">
            <mxRectangle width="130" height="30" as="alternateBounds" />
          </mxGeometry>
        </mxCell>
        <mxCell id="1kDg9G0LtiiuNaxr3lza-369" value="number" style="shape=partialRectangle;connectable=0;fillColor=none;top=0;left=0;bottom=0;right=0;align=left;spacingLeft=6;overflow=hidden;whiteSpace=wrap;html=1;" vertex="1" parent="1kDg9G0LtiiuNaxr3lza-358">
          <mxGeometry x="160" width="60" height="30" as="geometry">
            <mxRectangle width="60" height="30" as="alternateBounds" />
          </mxGeometry>
        </mxCell>
        <mxCell id="3Ezc2zgL5UM-MFxwJ3yi-105" value="Art_Style" style="shape=table;startSize=30;container=1;collapsible=1;childLayout=tableLayout;fixedRows=1;rowLines=0;fontStyle=1;align=center;resizeLast=1;html=1;" parent="1" vertex="1">
          <mxGeometry x="1292.5" y="505" width="180" height="90" as="geometry" />
        </mxCell>
        <mxCell id="3Ezc2zgL5UM-MFxwJ3yi-106" value="" style="shape=tableRow;horizontal=0;startSize=0;swimlaneHead=0;swimlaneBody=0;fillColor=none;collapsible=0;dropTarget=0;points=[[0,0.5],[1,0.5]];portConstraint=eastwest;top=0;left=0;right=0;bottom=1;" parent="3Ezc2zgL5UM-MFxwJ3yi-105" vertex="1">
          <mxGeometry y="30" width="180" height="30" as="geometry" />
        </mxCell>
        <mxCell id="3Ezc2zgL5UM-MFxwJ3yi-107" value="PK" style="shape=partialRectangle;connectable=0;fillColor=none;top=0;left=0;bottom=0;right=0;fontStyle=1;overflow=hidden;whiteSpace=wrap;html=1;" parent="3Ezc2zgL5UM-MFxwJ3yi-106" vertex="1">
          <mxGeometry width="30" height="30" as="geometry">
            <mxRectangle width="30" height="30" as="alternateBounds" />
          </mxGeometry>
        </mxCell>
        <mxCell id="3Ezc2zgL5UM-MFxwJ3yi-108" value="art_style_id" style="shape=partialRectangle;connectable=0;fillColor=none;top=0;left=0;bottom=0;right=0;align=left;spacingLeft=6;fontStyle=5;overflow=hidden;whiteSpace=wrap;html=1;" parent="3Ezc2zgL5UM-MFxwJ3yi-106" vertex="1">
          <mxGeometry x="30" width="89.99999999999955" height="30" as="geometry">
            <mxRectangle width="89.99999999999955" height="30" as="alternateBounds" />
          </mxGeometry>
        </mxCell>
        <mxCell id="1kDg9G0LtiiuNaxr3lza-345" value="number" style="shape=partialRectangle;connectable=0;fillColor=none;top=0;left=0;bottom=0;right=0;align=left;spacingLeft=6;fontStyle=0;overflow=hidden;whiteSpace=wrap;html=1;" vertex="1" parent="3Ezc2zgL5UM-MFxwJ3yi-106">
          <mxGeometry x="119.99999999999955" width="60.000000000000455" height="30" as="geometry">
            <mxRectangle width="60.000000000000455" height="30" as="alternateBounds" />
          </mxGeometry>
        </mxCell>
        <mxCell id="3Ezc2zgL5UM-MFxwJ3yi-109" value="" style="shape=tableRow;horizontal=0;startSize=0;swimlaneHead=0;swimlaneBody=0;fillColor=none;collapsible=0;dropTarget=0;points=[[0,0.5],[1,0.5]];portConstraint=eastwest;top=0;left=0;right=0;bottom=0;" parent="3Ezc2zgL5UM-MFxwJ3yi-105" vertex="1">
          <mxGeometry y="60" width="180" height="30" as="geometry" />
        </mxCell>
        <mxCell id="3Ezc2zgL5UM-MFxwJ3yi-110" value="" style="shape=partialRectangle;connectable=0;fillColor=none;top=0;left=0;bottom=0;right=0;editable=1;overflow=hidden;whiteSpace=wrap;html=1;" parent="3Ezc2zgL5UM-MFxwJ3yi-109" vertex="1">
          <mxGeometry width="30" height="30" as="geometry">
            <mxRectangle width="30" height="30" as="alternateBounds" />
          </mxGeometry>
        </mxCell>
        <mxCell id="3Ezc2zgL5UM-MFxwJ3yi-111" value="style_name" style="shape=partialRectangle;connectable=0;fillColor=none;top=0;left=0;bottom=0;right=0;align=left;spacingLeft=6;overflow=hidden;whiteSpace=wrap;html=1;fontStyle=1" parent="3Ezc2zgL5UM-MFxwJ3yi-109" vertex="1">
          <mxGeometry x="30" width="89.99999999999955" height="30" as="geometry">
            <mxRectangle width="89.99999999999955" height="30" as="alternateBounds" />
          </mxGeometry>
        </mxCell>
        <mxCell id="1kDg9G0LtiiuNaxr3lza-346" value="text" style="shape=partialRectangle;connectable=0;fillColor=none;top=0;left=0;bottom=0;right=0;align=left;spacingLeft=6;overflow=hidden;whiteSpace=wrap;html=1;fontStyle=0" vertex="1" parent="3Ezc2zgL5UM-MFxwJ3yi-109">
          <mxGeometry x="119.99999999999955" width="60.000000000000455" height="30" as="geometry">
            <mxRectangle width="60.000000000000455" height="30" as="alternateBounds" />
          </mxGeometry>
        </mxCell>
        <mxCell id="3Ezc2zgL5UM-MFxwJ3yi-130" value="Country" style="shape=table;startSize=30;container=1;collapsible=1;childLayout=tableLayout;fixedRows=1;rowLines=0;fontStyle=1;align=center;resizeLast=1;html=1;" parent="1" vertex="1">
          <mxGeometry x="870" y="575" width="189.99999999999955" height="90" as="geometry" />
        </mxCell>
        <mxCell id="3Ezc2zgL5UM-MFxwJ3yi-131" value="" style="shape=tableRow;horizontal=0;startSize=0;swimlaneHead=0;swimlaneBody=0;fillColor=none;collapsible=0;dropTarget=0;points=[[0,0.5],[1,0.5]];portConstraint=eastwest;top=0;left=0;right=0;bottom=1;" parent="3Ezc2zgL5UM-MFxwJ3yi-130" vertex="1">
          <mxGeometry y="30" width="189.99999999999955" height="30" as="geometry" />
        </mxCell>
        <mxCell id="3Ezc2zgL5UM-MFxwJ3yi-132" value="PK" style="shape=partialRectangle;connectable=0;fillColor=none;top=0;left=0;bottom=0;right=0;fontStyle=1;overflow=hidden;whiteSpace=wrap;html=1;" parent="3Ezc2zgL5UM-MFxwJ3yi-131" vertex="1">
          <mxGeometry width="30" height="30" as="geometry">
            <mxRectangle width="30" height="30" as="alternateBounds" />
          </mxGeometry>
        </mxCell>
        <mxCell id="3Ezc2zgL5UM-MFxwJ3yi-133" value="county_id" style="shape=partialRectangle;connectable=0;fillColor=none;top=0;left=0;bottom=0;right=0;align=left;spacingLeft=6;fontStyle=5;overflow=hidden;whiteSpace=wrap;html=1;" parent="3Ezc2zgL5UM-MFxwJ3yi-131" vertex="1">
          <mxGeometry x="30" width="100" height="30" as="geometry">
            <mxRectangle width="100" height="30" as="alternateBounds" />
          </mxGeometry>
        </mxCell>
        <mxCell id="1kDg9G0LtiiuNaxr3lza-413" value="number" style="shape=partialRectangle;connectable=0;fillColor=none;top=0;left=0;bottom=0;right=0;align=left;spacingLeft=6;fontStyle=0;overflow=hidden;whiteSpace=wrap;html=1;" vertex="1" parent="3Ezc2zgL5UM-MFxwJ3yi-131">
          <mxGeometry x="130" width="59.999999999999545" height="30" as="geometry">
            <mxRectangle width="59.999999999999545" height="30" as="alternateBounds" />
          </mxGeometry>
        </mxCell>
        <mxCell id="3Ezc2zgL5UM-MFxwJ3yi-134" value="" style="shape=tableRow;horizontal=0;startSize=0;swimlaneHead=0;swimlaneBody=0;fillColor=none;collapsible=0;dropTarget=0;points=[[0,0.5],[1,0.5]];portConstraint=eastwest;top=0;left=0;right=0;bottom=0;" parent="3Ezc2zgL5UM-MFxwJ3yi-130" vertex="1">
          <mxGeometry y="60" width="189.99999999999955" height="30" as="geometry" />
        </mxCell>
        <mxCell id="3Ezc2zgL5UM-MFxwJ3yi-135" value="" style="shape=partialRectangle;connectable=0;fillColor=none;top=0;left=0;bottom=0;right=0;editable=1;overflow=hidden;whiteSpace=wrap;html=1;" parent="3Ezc2zgL5UM-MFxwJ3yi-134" vertex="1">
          <mxGeometry width="30" height="30" as="geometry">
            <mxRectangle width="30" height="30" as="alternateBounds" />
          </mxGeometry>
        </mxCell>
        <mxCell id="3Ezc2zgL5UM-MFxwJ3yi-136" value="country_name" style="shape=partialRectangle;connectable=0;fillColor=none;top=0;left=0;bottom=0;right=0;align=left;spacingLeft=6;overflow=hidden;whiteSpace=wrap;html=1;fontStyle=1" parent="3Ezc2zgL5UM-MFxwJ3yi-134" vertex="1">
          <mxGeometry x="30" width="100" height="30" as="geometry">
            <mxRectangle width="100" height="30" as="alternateBounds" />
          </mxGeometry>
        </mxCell>
        <mxCell id="1kDg9G0LtiiuNaxr3lza-414" value="text" style="shape=partialRectangle;connectable=0;fillColor=none;top=0;left=0;bottom=0;right=0;align=left;spacingLeft=6;overflow=hidden;whiteSpace=wrap;html=1;" vertex="1" parent="3Ezc2zgL5UM-MFxwJ3yi-134">
          <mxGeometry x="130" width="59.999999999999545" height="30" as="geometry">
            <mxRectangle width="59.999999999999545" height="30" as="alternateBounds" />
          </mxGeometry>
        </mxCell>
        <mxCell id="3Ezc2zgL5UM-MFxwJ3yi-156" value="Art_Gallary" style="shape=table;startSize=30;container=1;collapsible=1;childLayout=tableLayout;fixedRows=1;rowLines=0;fontStyle=1;align=center;resizeLast=1;html=1;whiteSpace=wrap;" parent="1" vertex="1">
          <mxGeometry x="550" y="340" width="250" height="180" as="geometry" />
        </mxCell>
        <mxCell id="3Ezc2zgL5UM-MFxwJ3yi-157" value="" style="shape=tableRow;horizontal=0;startSize=0;swimlaneHead=0;swimlaneBody=0;fillColor=none;collapsible=0;dropTarget=0;points=[[0,0.5],[1,0.5]];portConstraint=eastwest;top=0;left=0;right=0;bottom=0;html=1;" parent="3Ezc2zgL5UM-MFxwJ3yi-156" vertex="1">
          <mxGeometry y="30" width="250" height="30" as="geometry" />
        </mxCell>
        <mxCell id="3Ezc2zgL5UM-MFxwJ3yi-158" value="PK" style="shape=partialRectangle;connectable=0;fillColor=none;top=0;left=0;bottom=0;right=0;fontStyle=1;overflow=hidden;html=1;whiteSpace=wrap;" parent="3Ezc2zgL5UM-MFxwJ3yi-157" vertex="1">
          <mxGeometry width="40" height="30" as="geometry">
            <mxRectangle width="40" height="30" as="alternateBounds" />
          </mxGeometry>
        </mxCell>
        <mxCell id="3Ezc2zgL5UM-MFxwJ3yi-159" value="art_gallary_id" style="shape=partialRectangle;connectable=0;fillColor=none;top=0;left=0;bottom=0;right=0;align=left;spacingLeft=6;fontStyle=5;overflow=hidden;html=1;whiteSpace=wrap;" parent="3Ezc2zgL5UM-MFxwJ3yi-157" vertex="1">
          <mxGeometry x="40" width="140" height="30" as="geometry">
            <mxRectangle width="140" height="30" as="alternateBounds" />
          </mxGeometry>
        </mxCell>
        <mxCell id="1kDg9G0LtiiuNaxr3lza-7" value="number" style="shape=partialRectangle;connectable=0;fillColor=none;top=0;left=0;bottom=0;right=0;align=left;spacingLeft=6;fontStyle=0;overflow=hidden;html=1;whiteSpace=wrap;" vertex="1" parent="3Ezc2zgL5UM-MFxwJ3yi-157">
          <mxGeometry x="180" width="70" height="30" as="geometry">
            <mxRectangle width="70" height="30" as="alternateBounds" />
          </mxGeometry>
        </mxCell>
        <mxCell id="1kDg9G0LtiiuNaxr3lza-361" style="shape=tableRow;horizontal=0;startSize=0;swimlaneHead=0;swimlaneBody=0;fillColor=none;collapsible=0;dropTarget=0;points=[[0,0.5],[1,0.5]];portConstraint=eastwest;top=0;left=0;right=0;bottom=0;html=1;" vertex="1" parent="3Ezc2zgL5UM-MFxwJ3yi-156">
          <mxGeometry y="60" width="250" height="30" as="geometry" />
        </mxCell>
        <mxCell id="1kDg9G0LtiiuNaxr3lza-362" value="FK" style="shape=partialRectangle;connectable=0;fillColor=none;top=0;left=0;bottom=0;right=0;fontStyle=1;overflow=hidden;html=1;whiteSpace=wrap;" vertex="1" parent="1kDg9G0LtiiuNaxr3lza-361">
          <mxGeometry width="40" height="30" as="geometry">
            <mxRectangle width="40" height="30" as="alternateBounds" />
          </mxGeometry>
        </mxCell>
        <mxCell id="1kDg9G0LtiiuNaxr3lza-363" value="charge_id" style="shape=partialRectangle;connectable=0;fillColor=none;top=0;left=0;bottom=0;right=0;align=left;spacingLeft=6;fontStyle=5;overflow=hidden;html=1;whiteSpace=wrap;" vertex="1" parent="1kDg9G0LtiiuNaxr3lza-361">
          <mxGeometry x="40" width="140" height="30" as="geometry">
            <mxRectangle width="140" height="30" as="alternateBounds" />
          </mxGeometry>
        </mxCell>
        <mxCell id="1kDg9G0LtiiuNaxr3lza-364" value="number" style="shape=partialRectangle;connectable=0;fillColor=none;top=0;left=0;bottom=0;right=0;align=left;spacingLeft=6;fontStyle=0;overflow=hidden;html=1;whiteSpace=wrap;" vertex="1" parent="1kDg9G0LtiiuNaxr3lza-361">
          <mxGeometry x="180" width="70" height="30" as="geometry">
            <mxRectangle width="70" height="30" as="alternateBounds" />
          </mxGeometry>
        </mxCell>
        <mxCell id="3Ezc2zgL5UM-MFxwJ3yi-160" value="" style="shape=tableRow;horizontal=0;startSize=0;swimlaneHead=0;swimlaneBody=0;fillColor=none;collapsible=0;dropTarget=0;points=[[0,0.5],[1,0.5]];portConstraint=eastwest;top=0;left=0;right=0;bottom=1;html=1;" parent="3Ezc2zgL5UM-MFxwJ3yi-156" vertex="1">
          <mxGeometry y="90" width="250" height="30" as="geometry" />
        </mxCell>
        <mxCell id="3Ezc2zgL5UM-MFxwJ3yi-161" value="FK" style="shape=partialRectangle;connectable=0;fillColor=none;top=0;left=0;bottom=0;right=0;fontStyle=1;overflow=hidden;html=1;whiteSpace=wrap;" parent="3Ezc2zgL5UM-MFxwJ3yi-160" vertex="1">
          <mxGeometry width="40" height="30" as="geometry">
            <mxRectangle width="40" height="30" as="alternateBounds" />
          </mxGeometry>
        </mxCell>
        <mxCell id="3Ezc2zgL5UM-MFxwJ3yi-162" value="province_id" style="shape=partialRectangle;connectable=0;fillColor=none;top=0;left=0;bottom=0;right=0;align=left;spacingLeft=6;fontStyle=5;overflow=hidden;html=1;whiteSpace=wrap;" parent="3Ezc2zgL5UM-MFxwJ3yi-160" vertex="1">
          <mxGeometry x="40" width="140" height="30" as="geometry">
            <mxRectangle width="140" height="30" as="alternateBounds" />
          </mxGeometry>
        </mxCell>
        <mxCell id="1kDg9G0LtiiuNaxr3lza-8" value="number" style="shape=partialRectangle;connectable=0;fillColor=none;top=0;left=0;bottom=0;right=0;align=left;spacingLeft=6;fontStyle=0;overflow=hidden;html=1;whiteSpace=wrap;" vertex="1" parent="3Ezc2zgL5UM-MFxwJ3yi-160">
          <mxGeometry x="180" width="70" height="30" as="geometry">
            <mxRectangle width="70" height="30" as="alternateBounds" />
          </mxGeometry>
        </mxCell>
        <mxCell id="3Ezc2zgL5UM-MFxwJ3yi-163" value="" style="shape=tableRow;horizontal=0;startSize=0;swimlaneHead=0;swimlaneBody=0;fillColor=none;collapsible=0;dropTarget=0;points=[[0,0.5],[1,0.5]];portConstraint=eastwest;top=0;left=0;right=0;bottom=0;html=1;" parent="3Ezc2zgL5UM-MFxwJ3yi-156" vertex="1">
          <mxGeometry y="120" width="250" height="30" as="geometry" />
        </mxCell>
        <mxCell id="3Ezc2zgL5UM-MFxwJ3yi-164" value="" style="shape=partialRectangle;connectable=0;fillColor=none;top=0;left=0;bottom=0;right=0;editable=1;overflow=hidden;html=1;whiteSpace=wrap;" parent="3Ezc2zgL5UM-MFxwJ3yi-163" vertex="1">
          <mxGeometry width="40" height="30" as="geometry">
            <mxRectangle width="40" height="30" as="alternateBounds" />
          </mxGeometry>
        </mxCell>
        <mxCell id="3Ezc2zgL5UM-MFxwJ3yi-165" value="gallary_name" style="shape=partialRectangle;connectable=0;fillColor=none;top=0;left=0;bottom=0;right=0;align=left;spacingLeft=6;overflow=hidden;html=1;whiteSpace=wrap;fontStyle=1" parent="3Ezc2zgL5UM-MFxwJ3yi-163" vertex="1">
          <mxGeometry x="40" width="140" height="30" as="geometry">
            <mxRectangle width="140" height="30" as="alternateBounds" />
          </mxGeometry>
        </mxCell>
        <mxCell id="1kDg9G0LtiiuNaxr3lza-9" value="text" style="shape=partialRectangle;connectable=0;fillColor=none;top=0;left=0;bottom=0;right=0;align=left;spacingLeft=6;overflow=hidden;html=1;whiteSpace=wrap;fontStyle=0" vertex="1" parent="3Ezc2zgL5UM-MFxwJ3yi-163">
          <mxGeometry x="180" width="70" height="30" as="geometry">
            <mxRectangle width="70" height="30" as="alternateBounds" />
          </mxGeometry>
        </mxCell>
        <mxCell id="3Ezc2zgL5UM-MFxwJ3yi-166" value="" style="shape=tableRow;horizontal=0;startSize=0;swimlaneHead=0;swimlaneBody=0;fillColor=none;collapsible=0;dropTarget=0;points=[[0,0.5],[1,0.5]];portConstraint=eastwest;top=0;left=0;right=0;bottom=0;html=1;" parent="3Ezc2zgL5UM-MFxwJ3yi-156" vertex="1">
          <mxGeometry y="150" width="250" height="30" as="geometry" />
        </mxCell>
        <mxCell id="3Ezc2zgL5UM-MFxwJ3yi-167" value="" style="shape=partialRectangle;connectable=0;fillColor=none;top=0;left=0;bottom=0;right=0;editable=1;overflow=hidden;html=1;whiteSpace=wrap;" parent="3Ezc2zgL5UM-MFxwJ3yi-166" vertex="1">
          <mxGeometry width="40" height="30" as="geometry">
            <mxRectangle width="40" height="30" as="alternateBounds" />
          </mxGeometry>
        </mxCell>
        <mxCell id="3Ezc2zgL5UM-MFxwJ3yi-168" value="gallary_description" style="shape=partialRectangle;connectable=0;fillColor=none;top=0;left=0;bottom=0;right=0;align=left;spacingLeft=6;overflow=hidden;html=1;whiteSpace=wrap;fontStyle=1" parent="3Ezc2zgL5UM-MFxwJ3yi-166" vertex="1">
          <mxGeometry x="40" width="140" height="30" as="geometry">
            <mxRectangle width="140" height="30" as="alternateBounds" />
          </mxGeometry>
        </mxCell>
        <mxCell id="1kDg9G0LtiiuNaxr3lza-10" value="text" style="shape=partialRectangle;connectable=0;fillColor=none;top=0;left=0;bottom=0;right=0;align=left;spacingLeft=6;overflow=hidden;html=1;whiteSpace=wrap;fontStyle=0" vertex="1" parent="3Ezc2zgL5UM-MFxwJ3yi-166">
          <mxGeometry x="180" width="70" height="30" as="geometry">
            <mxRectangle width="70" height="30" as="alternateBounds" />
          </mxGeometry>
        </mxCell>
        <mxCell id="1kDg9G0LtiiuNaxr3lza-98" value="Phone" style="shape=table;startSize=30;container=1;collapsible=1;childLayout=tableLayout;fixedRows=1;rowLines=0;fontStyle=1;align=center;resizeLast=1;html=1;whiteSpace=wrap;" vertex="1" parent="1">
          <mxGeometry x="530" y="40" width="239.99999999999955" height="150" as="geometry" />
        </mxCell>
        <mxCell id="1kDg9G0LtiiuNaxr3lza-99" value="" style="shape=tableRow;horizontal=0;startSize=0;swimlaneHead=0;swimlaneBody=0;fillColor=none;collapsible=0;dropTarget=0;points=[[0,0.5],[1,0.5]];portConstraint=eastwest;top=0;left=0;right=0;bottom=0;html=1;" vertex="1" parent="1kDg9G0LtiiuNaxr3lza-98">
          <mxGeometry y="30" width="239.99999999999955" height="30" as="geometry" />
        </mxCell>
        <mxCell id="1kDg9G0LtiiuNaxr3lza-100" value="PK" style="shape=partialRectangle;connectable=0;fillColor=none;top=0;left=0;bottom=0;right=0;fontStyle=1;overflow=hidden;html=1;whiteSpace=wrap;" vertex="1" parent="1kDg9G0LtiiuNaxr3lza-99">
          <mxGeometry width="49.999999999999545" height="30" as="geometry">
            <mxRectangle width="49.999999999999545" height="30" as="alternateBounds" />
          </mxGeometry>
        </mxCell>
        <mxCell id="1kDg9G0LtiiuNaxr3lza-101" value="phone_id" style="shape=partialRectangle;connectable=0;fillColor=none;top=0;left=0;bottom=0;right=0;align=left;spacingLeft=6;fontStyle=5;overflow=hidden;html=1;whiteSpace=wrap;" vertex="1" parent="1kDg9G0LtiiuNaxr3lza-99">
          <mxGeometry x="49.999999999999545" width="130.00000000000045" height="30" as="geometry">
            <mxRectangle width="130.00000000000045" height="30" as="alternateBounds" />
          </mxGeometry>
        </mxCell>
        <mxCell id="1kDg9G0LtiiuNaxr3lza-427" value="number" style="shape=partialRectangle;connectable=0;fillColor=none;top=0;left=0;bottom=0;right=0;align=left;spacingLeft=6;fontStyle=0;overflow=hidden;html=1;whiteSpace=wrap;" vertex="1" parent="1kDg9G0LtiiuNaxr3lza-99">
          <mxGeometry x="180" width="59.999999999999545" height="30" as="geometry">
            <mxRectangle width="59.999999999999545" height="30" as="alternateBounds" />
          </mxGeometry>
        </mxCell>
        <mxCell id="1kDg9G0LtiiuNaxr3lza-213" style="shape=tableRow;horizontal=0;startSize=0;swimlaneHead=0;swimlaneBody=0;fillColor=none;collapsible=0;dropTarget=0;points=[[0,0.5],[1,0.5]];portConstraint=eastwest;top=0;left=0;right=0;bottom=0;html=1;" vertex="1" parent="1kDg9G0LtiiuNaxr3lza-98">
          <mxGeometry y="60" width="239.99999999999955" height="30" as="geometry" />
        </mxCell>
        <mxCell id="1kDg9G0LtiiuNaxr3lza-214" value="FK" style="shape=partialRectangle;connectable=0;fillColor=none;top=0;left=0;bottom=0;right=0;fontStyle=1;overflow=hidden;html=1;whiteSpace=wrap;" vertex="1" parent="1kDg9G0LtiiuNaxr3lza-213">
          <mxGeometry width="49.999999999999545" height="30" as="geometry">
            <mxRectangle width="49.999999999999545" height="30" as="alternateBounds" />
          </mxGeometry>
        </mxCell>
        <mxCell id="1kDg9G0LtiiuNaxr3lza-215" value="contact_point_id" style="shape=partialRectangle;connectable=0;fillColor=none;top=0;left=0;bottom=0;right=0;align=left;spacingLeft=6;fontStyle=5;overflow=hidden;html=1;whiteSpace=wrap;" vertex="1" parent="1kDg9G0LtiiuNaxr3lza-213">
          <mxGeometry x="49.999999999999545" width="130.00000000000045" height="30" as="geometry">
            <mxRectangle width="130.00000000000045" height="30" as="alternateBounds" />
          </mxGeometry>
        </mxCell>
        <mxCell id="1kDg9G0LtiiuNaxr3lza-428" value="number" style="shape=partialRectangle;connectable=0;fillColor=none;top=0;left=0;bottom=0;right=0;align=left;spacingLeft=6;fontStyle=0;overflow=hidden;html=1;whiteSpace=wrap;" vertex="1" parent="1kDg9G0LtiiuNaxr3lza-213">
          <mxGeometry x="180" width="59.999999999999545" height="30" as="geometry">
            <mxRectangle width="59.999999999999545" height="30" as="alternateBounds" />
          </mxGeometry>
        </mxCell>
        <mxCell id="1kDg9G0LtiiuNaxr3lza-102" value="" style="shape=tableRow;horizontal=0;startSize=0;swimlaneHead=0;swimlaneBody=0;fillColor=none;collapsible=0;dropTarget=0;points=[[0,0.5],[1,0.5]];portConstraint=eastwest;top=0;left=0;right=0;bottom=1;html=1;" vertex="1" parent="1kDg9G0LtiiuNaxr3lza-98">
          <mxGeometry y="90" width="239.99999999999955" height="30" as="geometry" />
        </mxCell>
        <mxCell id="1kDg9G0LtiiuNaxr3lza-103" value="FK" style="shape=partialRectangle;connectable=0;fillColor=none;top=0;left=0;bottom=0;right=0;fontStyle=1;overflow=hidden;html=1;whiteSpace=wrap;" vertex="1" parent="1kDg9G0LtiiuNaxr3lza-102">
          <mxGeometry width="49.999999999999545" height="30" as="geometry">
            <mxRectangle width="49.999999999999545" height="30" as="alternateBounds" />
          </mxGeometry>
        </mxCell>
        <mxCell id="1kDg9G0LtiiuNaxr3lza-104" value="art_gallary_id" style="shape=partialRectangle;connectable=0;fillColor=none;top=0;left=0;bottom=0;right=0;align=left;spacingLeft=6;fontStyle=5;overflow=hidden;html=1;whiteSpace=wrap;" vertex="1" parent="1kDg9G0LtiiuNaxr3lza-102">
          <mxGeometry x="49.999999999999545" width="130.00000000000045" height="30" as="geometry">
            <mxRectangle width="130.00000000000045" height="30" as="alternateBounds" />
          </mxGeometry>
        </mxCell>
        <mxCell id="1kDg9G0LtiiuNaxr3lza-429" value="number" style="shape=partialRectangle;connectable=0;fillColor=none;top=0;left=0;bottom=0;right=0;align=left;spacingLeft=6;fontStyle=0;overflow=hidden;html=1;whiteSpace=wrap;" vertex="1" parent="1kDg9G0LtiiuNaxr3lza-102">
          <mxGeometry x="180" width="59.999999999999545" height="30" as="geometry">
            <mxRectangle width="59.999999999999545" height="30" as="alternateBounds" />
          </mxGeometry>
        </mxCell>
        <mxCell id="1kDg9G0LtiiuNaxr3lza-105" value="" style="shape=tableRow;horizontal=0;startSize=0;swimlaneHead=0;swimlaneBody=0;fillColor=none;collapsible=0;dropTarget=0;points=[[0,0.5],[1,0.5]];portConstraint=eastwest;top=0;left=0;right=0;bottom=0;html=1;" vertex="1" parent="1kDg9G0LtiiuNaxr3lza-98">
          <mxGeometry y="120" width="239.99999999999955" height="30" as="geometry" />
        </mxCell>
        <mxCell id="1kDg9G0LtiiuNaxr3lza-106" value="" style="shape=partialRectangle;connectable=0;fillColor=none;top=0;left=0;bottom=0;right=0;editable=1;overflow=hidden;html=1;whiteSpace=wrap;" vertex="1" parent="1kDg9G0LtiiuNaxr3lza-105">
          <mxGeometry width="49.999999999999545" height="30" as="geometry">
            <mxRectangle width="49.999999999999545" height="30" as="alternateBounds" />
          </mxGeometry>
        </mxCell>
        <mxCell id="1kDg9G0LtiiuNaxr3lza-107" value="phone_number" style="shape=partialRectangle;connectable=0;fillColor=none;top=0;left=0;bottom=0;right=0;align=left;spacingLeft=6;overflow=hidden;html=1;whiteSpace=wrap;" vertex="1" parent="1kDg9G0LtiiuNaxr3lza-105">
          <mxGeometry x="49.999999999999545" width="130.00000000000045" height="30" as="geometry">
            <mxRectangle width="130.00000000000045" height="30" as="alternateBounds" />
          </mxGeometry>
        </mxCell>
        <mxCell id="1kDg9G0LtiiuNaxr3lza-430" value="number" style="shape=partialRectangle;connectable=0;fillColor=none;top=0;left=0;bottom=0;right=0;align=left;spacingLeft=6;overflow=hidden;html=1;whiteSpace=wrap;" vertex="1" parent="1kDg9G0LtiiuNaxr3lza-105">
          <mxGeometry x="180" width="59.999999999999545" height="30" as="geometry">
            <mxRectangle width="59.999999999999545" height="30" as="alternateBounds" />
          </mxGeometry>
        </mxCell>
        <mxCell id="1kDg9G0LtiiuNaxr3lza-112" value="Email" style="shape=table;startSize=30;container=1;collapsible=1;childLayout=tableLayout;fixedRows=1;rowLines=0;fontStyle=1;align=center;resizeLast=1;html=1;whiteSpace=wrap;" vertex="1" parent="1">
          <mxGeometry x="870" y="10" width="249.99999999999955" height="150" as="geometry" />
        </mxCell>
        <mxCell id="1kDg9G0LtiiuNaxr3lza-113" value="" style="shape=tableRow;horizontal=0;startSize=0;swimlaneHead=0;swimlaneBody=0;fillColor=none;collapsible=0;dropTarget=0;points=[[0,0.5],[1,0.5]];portConstraint=eastwest;top=0;left=0;right=0;bottom=0;html=1;" vertex="1" parent="1kDg9G0LtiiuNaxr3lza-112">
          <mxGeometry y="30" width="249.99999999999955" height="30" as="geometry" />
        </mxCell>
        <mxCell id="1kDg9G0LtiiuNaxr3lza-114" value="PK" style="shape=partialRectangle;connectable=0;fillColor=none;top=0;left=0;bottom=0;right=0;fontStyle=1;overflow=hidden;html=1;whiteSpace=wrap;" vertex="1" parent="1kDg9G0LtiiuNaxr3lza-113">
          <mxGeometry width="49.999999999999545" height="30" as="geometry">
            <mxRectangle width="49.999999999999545" height="30" as="alternateBounds" />
          </mxGeometry>
        </mxCell>
        <mxCell id="1kDg9G0LtiiuNaxr3lza-115" value="email_id" style="shape=partialRectangle;connectable=0;fillColor=none;top=0;left=0;bottom=0;right=0;align=left;spacingLeft=6;fontStyle=5;overflow=hidden;html=1;whiteSpace=wrap;" vertex="1" parent="1kDg9G0LtiiuNaxr3lza-113">
          <mxGeometry x="49.999999999999545" width="130.00000000000045" height="30" as="geometry">
            <mxRectangle width="130.00000000000045" height="30" as="alternateBounds" />
          </mxGeometry>
        </mxCell>
        <mxCell id="1kDg9G0LtiiuNaxr3lza-432" value="number" style="shape=partialRectangle;connectable=0;fillColor=none;top=0;left=0;bottom=0;right=0;align=left;spacingLeft=6;fontStyle=0;overflow=hidden;html=1;whiteSpace=wrap;" vertex="1" parent="1kDg9G0LtiiuNaxr3lza-113">
          <mxGeometry x="180" width="69.99999999999955" height="30" as="geometry">
            <mxRectangle width="69.99999999999955" height="30" as="alternateBounds" />
          </mxGeometry>
        </mxCell>
        <mxCell id="1kDg9G0LtiiuNaxr3lza-216" style="shape=tableRow;horizontal=0;startSize=0;swimlaneHead=0;swimlaneBody=0;fillColor=none;collapsible=0;dropTarget=0;points=[[0,0.5],[1,0.5]];portConstraint=eastwest;top=0;left=0;right=0;bottom=0;html=1;" vertex="1" parent="1kDg9G0LtiiuNaxr3lza-112">
          <mxGeometry y="60" width="249.99999999999955" height="30" as="geometry" />
        </mxCell>
        <mxCell id="1kDg9G0LtiiuNaxr3lza-217" value="FK" style="shape=partialRectangle;connectable=0;fillColor=none;top=0;left=0;bottom=0;right=0;fontStyle=1;overflow=hidden;html=1;whiteSpace=wrap;" vertex="1" parent="1kDg9G0LtiiuNaxr3lza-216">
          <mxGeometry width="49.999999999999545" height="30" as="geometry">
            <mxRectangle width="49.999999999999545" height="30" as="alternateBounds" />
          </mxGeometry>
        </mxCell>
        <mxCell id="1kDg9G0LtiiuNaxr3lza-218" value="contact_point_id" style="shape=partialRectangle;connectable=0;fillColor=none;top=0;left=0;bottom=0;right=0;align=left;spacingLeft=6;fontStyle=5;overflow=hidden;html=1;whiteSpace=wrap;" vertex="1" parent="1kDg9G0LtiiuNaxr3lza-216">
          <mxGeometry x="49.999999999999545" width="130.00000000000045" height="30" as="geometry">
            <mxRectangle width="130.00000000000045" height="30" as="alternateBounds" />
          </mxGeometry>
        </mxCell>
        <mxCell id="1kDg9G0LtiiuNaxr3lza-433" value="number" style="shape=partialRectangle;connectable=0;fillColor=none;top=0;left=0;bottom=0;right=0;align=left;spacingLeft=6;fontStyle=0;overflow=hidden;html=1;whiteSpace=wrap;" vertex="1" parent="1kDg9G0LtiiuNaxr3lza-216">
          <mxGeometry x="180" width="69.99999999999955" height="30" as="geometry">
            <mxRectangle width="69.99999999999955" height="30" as="alternateBounds" />
          </mxGeometry>
        </mxCell>
        <mxCell id="1kDg9G0LtiiuNaxr3lza-116" value="" style="shape=tableRow;horizontal=0;startSize=0;swimlaneHead=0;swimlaneBody=0;fillColor=none;collapsible=0;dropTarget=0;points=[[0,0.5],[1,0.5]];portConstraint=eastwest;top=0;left=0;right=0;bottom=1;html=1;" vertex="1" parent="1kDg9G0LtiiuNaxr3lza-112">
          <mxGeometry y="90" width="249.99999999999955" height="30" as="geometry" />
        </mxCell>
        <mxCell id="1kDg9G0LtiiuNaxr3lza-117" value="FK" style="shape=partialRectangle;connectable=0;fillColor=none;top=0;left=0;bottom=0;right=0;fontStyle=1;overflow=hidden;html=1;whiteSpace=wrap;" vertex="1" parent="1kDg9G0LtiiuNaxr3lza-116">
          <mxGeometry width="49.999999999999545" height="30" as="geometry">
            <mxRectangle width="49.999999999999545" height="30" as="alternateBounds" />
          </mxGeometry>
        </mxCell>
        <mxCell id="1kDg9G0LtiiuNaxr3lza-118" value="art_gallary_id" style="shape=partialRectangle;connectable=0;fillColor=none;top=0;left=0;bottom=0;right=0;align=left;spacingLeft=6;fontStyle=5;overflow=hidden;html=1;whiteSpace=wrap;" vertex="1" parent="1kDg9G0LtiiuNaxr3lza-116">
          <mxGeometry x="49.999999999999545" width="130.00000000000045" height="30" as="geometry">
            <mxRectangle width="130.00000000000045" height="30" as="alternateBounds" />
          </mxGeometry>
        </mxCell>
        <mxCell id="1kDg9G0LtiiuNaxr3lza-434" value="number" style="shape=partialRectangle;connectable=0;fillColor=none;top=0;left=0;bottom=0;right=0;align=left;spacingLeft=6;fontStyle=0;overflow=hidden;html=1;whiteSpace=wrap;" vertex="1" parent="1kDg9G0LtiiuNaxr3lza-116">
          <mxGeometry x="180" width="69.99999999999955" height="30" as="geometry">
            <mxRectangle width="69.99999999999955" height="30" as="alternateBounds" />
          </mxGeometry>
        </mxCell>
        <mxCell id="1kDg9G0LtiiuNaxr3lza-119" value="" style="shape=tableRow;horizontal=0;startSize=0;swimlaneHead=0;swimlaneBody=0;fillColor=none;collapsible=0;dropTarget=0;points=[[0,0.5],[1,0.5]];portConstraint=eastwest;top=0;left=0;right=0;bottom=0;html=1;" vertex="1" parent="1kDg9G0LtiiuNaxr3lza-112">
          <mxGeometry y="120" width="249.99999999999955" height="30" as="geometry" />
        </mxCell>
        <mxCell id="1kDg9G0LtiiuNaxr3lza-120" value="" style="shape=partialRectangle;connectable=0;fillColor=none;top=0;left=0;bottom=0;right=0;editable=1;overflow=hidden;html=1;whiteSpace=wrap;" vertex="1" parent="1kDg9G0LtiiuNaxr3lza-119">
          <mxGeometry width="49.999999999999545" height="30" as="geometry">
            <mxRectangle width="49.999999999999545" height="30" as="alternateBounds" />
          </mxGeometry>
        </mxCell>
        <mxCell id="1kDg9G0LtiiuNaxr3lza-121" value="email_address" style="shape=partialRectangle;connectable=0;fillColor=none;top=0;left=0;bottom=0;right=0;align=left;spacingLeft=6;overflow=hidden;html=1;whiteSpace=wrap;fontStyle=1" vertex="1" parent="1kDg9G0LtiiuNaxr3lza-119">
          <mxGeometry x="49.999999999999545" width="130.00000000000045" height="30" as="geometry">
            <mxRectangle width="130.00000000000045" height="30" as="alternateBounds" />
          </mxGeometry>
        </mxCell>
        <mxCell id="1kDg9G0LtiiuNaxr3lza-435" value="text" style="shape=partialRectangle;connectable=0;fillColor=none;top=0;left=0;bottom=0;right=0;align=left;spacingLeft=6;overflow=hidden;html=1;whiteSpace=wrap;" vertex="1" parent="1kDg9G0LtiiuNaxr3lza-119">
          <mxGeometry x="180" width="69.99999999999955" height="30" as="geometry">
            <mxRectangle width="69.99999999999955" height="30" as="alternateBounds" />
          </mxGeometry>
        </mxCell>
        <mxCell id="1kDg9G0LtiiuNaxr3lza-155" value="City" style="shape=table;startSize=30;container=1;collapsible=1;childLayout=tableLayout;fixedRows=1;rowLines=0;fontStyle=1;align=center;resizeLast=1;html=1;whiteSpace=wrap;" vertex="1" parent="1">
          <mxGeometry x="300" y="580" width="180" height="120" as="geometry" />
        </mxCell>
        <mxCell id="1kDg9G0LtiiuNaxr3lza-156" value="" style="shape=tableRow;horizontal=0;startSize=0;swimlaneHead=0;swimlaneBody=0;fillColor=none;collapsible=0;dropTarget=0;points=[[0,0.5],[1,0.5]];portConstraint=eastwest;top=0;left=0;right=0;bottom=0;html=1;" vertex="1" parent="1kDg9G0LtiiuNaxr3lza-155">
          <mxGeometry y="30" width="180" height="30" as="geometry" />
        </mxCell>
        <mxCell id="1kDg9G0LtiiuNaxr3lza-157" value="PK" style="shape=partialRectangle;connectable=0;fillColor=none;top=0;left=0;bottom=0;right=0;fontStyle=1;overflow=hidden;html=1;whiteSpace=wrap;" vertex="1" parent="1kDg9G0LtiiuNaxr3lza-156">
          <mxGeometry width="40" height="30" as="geometry">
            <mxRectangle width="40" height="30" as="alternateBounds" />
          </mxGeometry>
        </mxCell>
        <mxCell id="1kDg9G0LtiiuNaxr3lza-158" value="city_id" style="shape=partialRectangle;connectable=0;fillColor=none;top=0;left=0;bottom=0;right=0;align=left;spacingLeft=6;fontStyle=5;overflow=hidden;html=1;whiteSpace=wrap;" vertex="1" parent="1kDg9G0LtiiuNaxr3lza-156">
          <mxGeometry x="40" width="80" height="30" as="geometry">
            <mxRectangle width="80" height="30" as="alternateBounds" />
          </mxGeometry>
        </mxCell>
        <mxCell id="1kDg9G0LtiiuNaxr3lza-410" value="number" style="shape=partialRectangle;connectable=0;fillColor=none;top=0;left=0;bottom=0;right=0;align=left;spacingLeft=6;fontStyle=0;overflow=hidden;html=1;whiteSpace=wrap;" vertex="1" parent="1kDg9G0LtiiuNaxr3lza-156">
          <mxGeometry x="120" width="60" height="30" as="geometry">
            <mxRectangle width="60" height="30" as="alternateBounds" />
          </mxGeometry>
        </mxCell>
        <mxCell id="1kDg9G0LtiiuNaxr3lza-159" value="" style="shape=tableRow;horizontal=0;startSize=0;swimlaneHead=0;swimlaneBody=0;fillColor=none;collapsible=0;dropTarget=0;points=[[0,0.5],[1,0.5]];portConstraint=eastwest;top=0;left=0;right=0;bottom=1;html=1;" vertex="1" parent="1kDg9G0LtiiuNaxr3lza-155">
          <mxGeometry y="60" width="180" height="30" as="geometry" />
        </mxCell>
        <mxCell id="1kDg9G0LtiiuNaxr3lza-160" value="FK" style="shape=partialRectangle;connectable=0;fillColor=none;top=0;left=0;bottom=0;right=0;fontStyle=1;overflow=hidden;html=1;whiteSpace=wrap;" vertex="1" parent="1kDg9G0LtiiuNaxr3lza-159">
          <mxGeometry width="40" height="30" as="geometry">
            <mxRectangle width="40" height="30" as="alternateBounds" />
          </mxGeometry>
        </mxCell>
        <mxCell id="1kDg9G0LtiiuNaxr3lza-161" value="province_id" style="shape=partialRectangle;connectable=0;fillColor=none;top=0;left=0;bottom=0;right=0;align=left;spacingLeft=6;fontStyle=5;overflow=hidden;html=1;whiteSpace=wrap;" vertex="1" parent="1kDg9G0LtiiuNaxr3lza-159">
          <mxGeometry x="40" width="80" height="30" as="geometry">
            <mxRectangle width="80" height="30" as="alternateBounds" />
          </mxGeometry>
        </mxCell>
        <mxCell id="1kDg9G0LtiiuNaxr3lza-411" value="number" style="shape=partialRectangle;connectable=0;fillColor=none;top=0;left=0;bottom=0;right=0;align=left;spacingLeft=6;fontStyle=0;overflow=hidden;html=1;whiteSpace=wrap;" vertex="1" parent="1kDg9G0LtiiuNaxr3lza-159">
          <mxGeometry x="120" width="60" height="30" as="geometry">
            <mxRectangle width="60" height="30" as="alternateBounds" />
          </mxGeometry>
        </mxCell>
        <mxCell id="1kDg9G0LtiiuNaxr3lza-162" value="" style="shape=tableRow;horizontal=0;startSize=0;swimlaneHead=0;swimlaneBody=0;fillColor=none;collapsible=0;dropTarget=0;points=[[0,0.5],[1,0.5]];portConstraint=eastwest;top=0;left=0;right=0;bottom=0;html=1;" vertex="1" parent="1kDg9G0LtiiuNaxr3lza-155">
          <mxGeometry y="90" width="180" height="30" as="geometry" />
        </mxCell>
        <mxCell id="1kDg9G0LtiiuNaxr3lza-163" value="" style="shape=partialRectangle;connectable=0;fillColor=none;top=0;left=0;bottom=0;right=0;editable=1;overflow=hidden;html=1;whiteSpace=wrap;" vertex="1" parent="1kDg9G0LtiiuNaxr3lza-162">
          <mxGeometry width="40" height="30" as="geometry">
            <mxRectangle width="40" height="30" as="alternateBounds" />
          </mxGeometry>
        </mxCell>
        <mxCell id="1kDg9G0LtiiuNaxr3lza-164" value="city_name" style="shape=partialRectangle;connectable=0;fillColor=none;top=0;left=0;bottom=0;right=0;align=left;spacingLeft=6;overflow=hidden;html=1;whiteSpace=wrap;fontStyle=1" vertex="1" parent="1kDg9G0LtiiuNaxr3lza-162">
          <mxGeometry x="40" width="80" height="30" as="geometry">
            <mxRectangle width="80" height="30" as="alternateBounds" />
          </mxGeometry>
        </mxCell>
        <mxCell id="1kDg9G0LtiiuNaxr3lza-412" value="text" style="shape=partialRectangle;connectable=0;fillColor=none;top=0;left=0;bottom=0;right=0;align=left;spacingLeft=6;overflow=hidden;html=1;whiteSpace=wrap;fontStyle=0" vertex="1" parent="1kDg9G0LtiiuNaxr3lza-162">
          <mxGeometry x="120" width="60" height="30" as="geometry">
            <mxRectangle width="60" height="30" as="alternateBounds" />
          </mxGeometry>
        </mxCell>
        <mxCell id="1kDg9G0LtiiuNaxr3lza-220" value="" style="edgeStyle=entityRelationEdgeStyle;fontSize=12;html=1;endArrow=ERoneToMany;startArrow=ERmandOne;rounded=0;entryX=0;entryY=0.5;entryDx=0;entryDy=0;exitX=1;exitY=0.5;exitDx=0;exitDy=0;" edge="1" parent="1" source="3Ezc2zgL5UM-MFxwJ3yi-157" target="1kDg9G0LtiiuNaxr3lza-116">
          <mxGeometry width="100" height="100" relative="1" as="geometry">
            <mxPoint x="650" y="430" as="sourcePoint" />
            <mxPoint x="1080" y="230" as="targetPoint" />
          </mxGeometry>
        </mxCell>
        <mxCell id="1kDg9G0LtiiuNaxr3lza-447" value="has" style="edgeLabel;html=1;align=center;verticalAlign=middle;resizable=0;points=[];" vertex="1" connectable="0" parent="1kDg9G0LtiiuNaxr3lza-220">
          <mxGeometry x="0.0402" y="4" relative="1" as="geometry">
            <mxPoint as="offset" />
          </mxGeometry>
        </mxCell>
        <mxCell id="1kDg9G0LtiiuNaxr3lza-234" value="&lt;span style=&quot;text-wrap: wrap;&quot;&gt;Gallary_Contact_Purpose&lt;/span&gt;" style="shape=table;startSize=30;container=1;collapsible=1;childLayout=tableLayout;fixedRows=1;rowLines=0;fontStyle=1;align=center;resizeLast=1;html=1;" vertex="1" parent="1">
          <mxGeometry x="90" y="160" width="290" height="120" as="geometry" />
        </mxCell>
        <mxCell id="1kDg9G0LtiiuNaxr3lza-235" value="" style="shape=tableRow;horizontal=0;startSize=0;swimlaneHead=0;swimlaneBody=0;fillColor=none;collapsible=0;dropTarget=0;points=[[0,0.5],[1,0.5]];portConstraint=eastwest;top=0;left=0;right=0;bottom=1;" vertex="1" parent="1kDg9G0LtiiuNaxr3lza-234">
          <mxGeometry y="30" width="290" height="30" as="geometry" />
        </mxCell>
        <mxCell id="1kDg9G0LtiiuNaxr3lza-236" value="PK" style="shape=partialRectangle;connectable=0;fillColor=none;top=0;left=0;bottom=0;right=0;fontStyle=1;overflow=hidden;whiteSpace=wrap;html=1;" vertex="1" parent="1kDg9G0LtiiuNaxr3lza-235">
          <mxGeometry width="30" height="30" as="geometry">
            <mxRectangle width="30" height="30" as="alternateBounds" />
          </mxGeometry>
        </mxCell>
        <mxCell id="1kDg9G0LtiiuNaxr3lza-237" value="gallary_contact_purpose_id" style="shape=partialRectangle;connectable=0;fillColor=none;top=0;left=0;bottom=0;right=0;align=left;spacingLeft=6;fontStyle=5;overflow=hidden;whiteSpace=wrap;html=1;" vertex="1" parent="1kDg9G0LtiiuNaxr3lza-235">
          <mxGeometry x="30" width="195" height="30" as="geometry">
            <mxRectangle width="195" height="30" as="alternateBounds" />
          </mxGeometry>
        </mxCell>
        <mxCell id="1kDg9G0LtiiuNaxr3lza-424" value="number" style="shape=partialRectangle;connectable=0;fillColor=none;top=0;left=0;bottom=0;right=0;align=left;spacingLeft=6;fontStyle=0;overflow=hidden;whiteSpace=wrap;html=1;" vertex="1" parent="1kDg9G0LtiiuNaxr3lza-235">
          <mxGeometry x="225" width="65" height="30" as="geometry">
            <mxRectangle width="65" height="30" as="alternateBounds" />
          </mxGeometry>
        </mxCell>
        <mxCell id="1kDg9G0LtiiuNaxr3lza-238" value="" style="shape=tableRow;horizontal=0;startSize=0;swimlaneHead=0;swimlaneBody=0;fillColor=none;collapsible=0;dropTarget=0;points=[[0,0.5],[1,0.5]];portConstraint=eastwest;top=0;left=0;right=0;bottom=0;" vertex="1" parent="1kDg9G0LtiiuNaxr3lza-234">
          <mxGeometry y="60" width="290" height="30" as="geometry" />
        </mxCell>
        <mxCell id="1kDg9G0LtiiuNaxr3lza-239" value="FK" style="shape=partialRectangle;connectable=0;fillColor=none;top=0;left=0;bottom=0;right=0;editable=1;overflow=hidden;whiteSpace=wrap;html=1;" vertex="1" parent="1kDg9G0LtiiuNaxr3lza-238">
          <mxGeometry width="30" height="30" as="geometry">
            <mxRectangle width="30" height="30" as="alternateBounds" />
          </mxGeometry>
        </mxCell>
        <mxCell id="1kDg9G0LtiiuNaxr3lza-240" value="contact_point_id" style="shape=partialRectangle;connectable=0;fillColor=none;top=0;left=0;bottom=0;right=0;align=left;spacingLeft=6;overflow=hidden;whiteSpace=wrap;html=1;" vertex="1" parent="1kDg9G0LtiiuNaxr3lza-238">
          <mxGeometry x="30" width="195" height="30" as="geometry">
            <mxRectangle width="195" height="30" as="alternateBounds" />
          </mxGeometry>
        </mxCell>
        <mxCell id="1kDg9G0LtiiuNaxr3lza-425" value="number" style="shape=partialRectangle;connectable=0;fillColor=none;top=0;left=0;bottom=0;right=0;align=left;spacingLeft=6;overflow=hidden;whiteSpace=wrap;html=1;" vertex="1" parent="1kDg9G0LtiiuNaxr3lza-238">
          <mxGeometry x="225" width="65" height="30" as="geometry">
            <mxRectangle width="65" height="30" as="alternateBounds" />
          </mxGeometry>
        </mxCell>
        <mxCell id="1kDg9G0LtiiuNaxr3lza-241" value="" style="shape=tableRow;horizontal=0;startSize=0;swimlaneHead=0;swimlaneBody=0;fillColor=none;collapsible=0;dropTarget=0;points=[[0,0.5],[1,0.5]];portConstraint=eastwest;top=0;left=0;right=0;bottom=0;" vertex="1" parent="1kDg9G0LtiiuNaxr3lza-234">
          <mxGeometry y="90" width="290" height="30" as="geometry" />
        </mxCell>
        <mxCell id="1kDg9G0LtiiuNaxr3lza-242" value="FK" style="shape=partialRectangle;connectable=0;fillColor=none;top=0;left=0;bottom=0;right=0;editable=1;overflow=hidden;whiteSpace=wrap;html=1;" vertex="1" parent="1kDg9G0LtiiuNaxr3lza-241">
          <mxGeometry width="30" height="30" as="geometry">
            <mxRectangle width="30" height="30" as="alternateBounds" />
          </mxGeometry>
        </mxCell>
        <mxCell id="1kDg9G0LtiiuNaxr3lza-243" value="art_gallary_id" style="shape=partialRectangle;connectable=0;fillColor=none;top=0;left=0;bottom=0;right=0;align=left;spacingLeft=6;overflow=hidden;whiteSpace=wrap;html=1;" vertex="1" parent="1kDg9G0LtiiuNaxr3lza-241">
          <mxGeometry x="30" width="195" height="30" as="geometry">
            <mxRectangle width="195" height="30" as="alternateBounds" />
          </mxGeometry>
        </mxCell>
        <mxCell id="1kDg9G0LtiiuNaxr3lza-426" value="number" style="shape=partialRectangle;connectable=0;fillColor=none;top=0;left=0;bottom=0;right=0;align=left;spacingLeft=6;overflow=hidden;whiteSpace=wrap;html=1;" vertex="1" parent="1kDg9G0LtiiuNaxr3lza-241">
          <mxGeometry x="225" width="65" height="30" as="geometry">
            <mxRectangle width="65" height="30" as="alternateBounds" />
          </mxGeometry>
        </mxCell>
        <mxCell id="1kDg9G0LtiiuNaxr3lza-247" value="" style="edgeStyle=entityRelationEdgeStyle;fontSize=12;html=1;endArrow=ERoneToMany;startArrow=ERmandOne;rounded=0;entryX=1;entryY=0.5;entryDx=0;entryDy=0;exitX=0.01;exitY=0.774;exitDx=0;exitDy=0;exitPerimeter=0;" edge="1" parent="1" source="3Ezc2zgL5UM-MFxwJ3yi-157" target="1kDg9G0LtiiuNaxr3lza-241">
          <mxGeometry width="100" height="100" relative="1" as="geometry">
            <mxPoint x="650" y="430" as="sourcePoint" />
            <mxPoint x="750" y="330" as="targetPoint" />
          </mxGeometry>
        </mxCell>
        <mxCell id="1kDg9G0LtiiuNaxr3lza-442" value="has" style="edgeLabel;html=1;align=center;verticalAlign=middle;resizable=0;points=[];" vertex="1" connectable="0" parent="1kDg9G0LtiiuNaxr3lza-247">
          <mxGeometry x="0.1293" y="-4" relative="1" as="geometry">
            <mxPoint as="offset" />
          </mxGeometry>
        </mxCell>
        <mxCell id="1kDg9G0LtiiuNaxr3lza-249" value="is" style="edgeStyle=entityRelationEdgeStyle;fontSize=12;html=1;endArrow=ERzeroToMany;startArrow=ERmandOne;rounded=0;entryX=1;entryY=0.5;entryDx=0;entryDy=0;exitX=1;exitY=0.5;exitDx=0;exitDy=0;" edge="1" parent="1" source="1kDg9G0LtiiuNaxr3lza-251" target="1kDg9G0LtiiuNaxr3lza-238">
          <mxGeometry width="100" height="100" relative="1" as="geometry">
            <mxPoint x="430" y="395" as="sourcePoint" />
            <mxPoint x="550" y="150" as="targetPoint" />
          </mxGeometry>
        </mxCell>
        <mxCell id="1kDg9G0LtiiuNaxr3lza-250" value="&lt;span style=&quot;text-wrap: wrap;&quot;&gt;Contact_Point&lt;/span&gt;" style="shape=table;startSize=30;container=1;collapsible=1;childLayout=tableLayout;fixedRows=1;rowLines=0;fontStyle=1;align=center;resizeLast=1;html=1;" vertex="1" parent="1">
          <mxGeometry x="160" y="40" width="220" height="90" as="geometry" />
        </mxCell>
        <mxCell id="1kDg9G0LtiiuNaxr3lza-251" value="" style="shape=tableRow;horizontal=0;startSize=0;swimlaneHead=0;swimlaneBody=0;fillColor=none;collapsible=0;dropTarget=0;points=[[0,0.5],[1,0.5]];portConstraint=eastwest;top=0;left=0;right=0;bottom=1;" vertex="1" parent="1kDg9G0LtiiuNaxr3lza-250">
          <mxGeometry y="30" width="220" height="30" as="geometry" />
        </mxCell>
        <mxCell id="1kDg9G0LtiiuNaxr3lza-252" value="PK" style="shape=partialRectangle;connectable=0;fillColor=none;top=0;left=0;bottom=0;right=0;fontStyle=1;overflow=hidden;whiteSpace=wrap;html=1;" vertex="1" parent="1kDg9G0LtiiuNaxr3lza-251">
          <mxGeometry width="30" height="30" as="geometry">
            <mxRectangle width="30" height="30" as="alternateBounds" />
          </mxGeometry>
        </mxCell>
        <mxCell id="1kDg9G0LtiiuNaxr3lza-253" value="contact_point_id" style="shape=partialRectangle;connectable=0;fillColor=none;top=0;left=0;bottom=0;right=0;align=left;spacingLeft=6;fontStyle=5;overflow=hidden;whiteSpace=wrap;html=1;" vertex="1" parent="1kDg9G0LtiiuNaxr3lza-251">
          <mxGeometry x="30" width="120" height="30" as="geometry">
            <mxRectangle width="120" height="30" as="alternateBounds" />
          </mxGeometry>
        </mxCell>
        <mxCell id="1kDg9G0LtiiuNaxr3lza-422" value="number" style="shape=partialRectangle;connectable=0;fillColor=none;top=0;left=0;bottom=0;right=0;align=left;spacingLeft=6;fontStyle=0;overflow=hidden;whiteSpace=wrap;html=1;" vertex="1" parent="1kDg9G0LtiiuNaxr3lza-251">
          <mxGeometry x="150" width="70" height="30" as="geometry">
            <mxRectangle width="70" height="30" as="alternateBounds" />
          </mxGeometry>
        </mxCell>
        <mxCell id="1kDg9G0LtiiuNaxr3lza-254" value="" style="shape=tableRow;horizontal=0;startSize=0;swimlaneHead=0;swimlaneBody=0;fillColor=none;collapsible=0;dropTarget=0;points=[[0,0.5],[1,0.5]];portConstraint=eastwest;top=0;left=0;right=0;bottom=0;" vertex="1" parent="1kDg9G0LtiiuNaxr3lza-250">
          <mxGeometry y="60" width="220" height="30" as="geometry" />
        </mxCell>
        <mxCell id="1kDg9G0LtiiuNaxr3lza-255" value="" style="shape=partialRectangle;connectable=0;fillColor=none;top=0;left=0;bottom=0;right=0;editable=1;overflow=hidden;whiteSpace=wrap;html=1;" vertex="1" parent="1kDg9G0LtiiuNaxr3lza-254">
          <mxGeometry width="30" height="30" as="geometry">
            <mxRectangle width="30" height="30" as="alternateBounds" />
          </mxGeometry>
        </mxCell>
        <mxCell id="1kDg9G0LtiiuNaxr3lza-256" value="contact_purpose" style="shape=partialRectangle;connectable=0;fillColor=none;top=0;left=0;bottom=0;right=0;align=left;spacingLeft=6;overflow=hidden;whiteSpace=wrap;html=1;" vertex="1" parent="1kDg9G0LtiiuNaxr3lza-254">
          <mxGeometry x="30" width="120" height="30" as="geometry">
            <mxRectangle width="120" height="30" as="alternateBounds" />
          </mxGeometry>
        </mxCell>
        <mxCell id="1kDg9G0LtiiuNaxr3lza-423" value="text" style="shape=partialRectangle;connectable=0;fillColor=none;top=0;left=0;bottom=0;right=0;align=left;spacingLeft=6;overflow=hidden;whiteSpace=wrap;html=1;" vertex="1" parent="1kDg9G0LtiiuNaxr3lza-254">
          <mxGeometry x="150" width="70" height="30" as="geometry">
            <mxRectangle width="70" height="30" as="alternateBounds" />
          </mxGeometry>
        </mxCell>
        <mxCell id="1kDg9G0LtiiuNaxr3lza-276" value="Art_Piece" style="shape=table;startSize=30;container=1;collapsible=1;childLayout=tableLayout;fixedRows=1;rowLines=0;fontStyle=1;align=center;resizeLast=1;html=1;whiteSpace=wrap;" vertex="1" parent="1">
          <mxGeometry x="890" y="220" width="249.99999999999955" height="210" as="geometry" />
        </mxCell>
        <mxCell id="1kDg9G0LtiiuNaxr3lza-277" value="" style="shape=tableRow;horizontal=0;startSize=0;swimlaneHead=0;swimlaneBody=0;fillColor=none;collapsible=0;dropTarget=0;points=[[0,0.5],[1,0.5]];portConstraint=eastwest;top=0;left=0;right=0;bottom=0;html=1;" vertex="1" parent="1kDg9G0LtiiuNaxr3lza-276">
          <mxGeometry y="30" width="249.99999999999955" height="30" as="geometry" />
        </mxCell>
        <mxCell id="1kDg9G0LtiiuNaxr3lza-278" value="PK" style="shape=partialRectangle;connectable=0;fillColor=none;top=0;left=0;bottom=0;right=0;fontStyle=1;overflow=hidden;html=1;whiteSpace=wrap;" vertex="1" parent="1kDg9G0LtiiuNaxr3lza-277">
          <mxGeometry width="49.999999999999545" height="30" as="geometry">
            <mxRectangle width="49.999999999999545" height="30" as="alternateBounds" />
          </mxGeometry>
        </mxCell>
        <mxCell id="1kDg9G0LtiiuNaxr3lza-279" value="art_piece_id" style="shape=partialRectangle;connectable=0;fillColor=none;top=0;left=0;bottom=0;right=0;align=left;spacingLeft=6;fontStyle=5;overflow=hidden;html=1;whiteSpace=wrap;" vertex="1" parent="1kDg9G0LtiiuNaxr3lza-277">
          <mxGeometry x="49.999999999999545" width="120.00000000000045" height="30" as="geometry">
            <mxRectangle width="120.00000000000045" height="30" as="alternateBounds" />
          </mxGeometry>
        </mxCell>
        <mxCell id="1kDg9G0LtiiuNaxr3lza-334" value="number" style="shape=partialRectangle;connectable=0;fillColor=none;top=0;left=0;bottom=0;right=0;align=left;spacingLeft=6;fontStyle=0;overflow=hidden;html=1;whiteSpace=wrap;" vertex="1" parent="1kDg9G0LtiiuNaxr3lza-277">
          <mxGeometry x="170" width="79.99999999999955" height="30" as="geometry">
            <mxRectangle width="79.99999999999955" height="30" as="alternateBounds" />
          </mxGeometry>
        </mxCell>
        <mxCell id="1kDg9G0LtiiuNaxr3lza-280" style="shape=tableRow;horizontal=0;startSize=0;swimlaneHead=0;swimlaneBody=0;fillColor=none;collapsible=0;dropTarget=0;points=[[0,0.5],[1,0.5]];portConstraint=eastwest;top=0;left=0;right=0;bottom=0;html=1;" vertex="1" parent="1kDg9G0LtiiuNaxr3lza-276">
          <mxGeometry y="60" width="249.99999999999955" height="30" as="geometry" />
        </mxCell>
        <mxCell id="1kDg9G0LtiiuNaxr3lza-281" value="FK" style="shape=partialRectangle;connectable=0;fillColor=none;top=0;left=0;bottom=0;right=0;fontStyle=1;overflow=hidden;html=1;whiteSpace=wrap;" vertex="1" parent="1kDg9G0LtiiuNaxr3lza-280">
          <mxGeometry width="49.999999999999545" height="30" as="geometry">
            <mxRectangle width="49.999999999999545" height="30" as="alternateBounds" />
          </mxGeometry>
        </mxCell>
        <mxCell id="1kDg9G0LtiiuNaxr3lza-282" value="art_gallary_id" style="shape=partialRectangle;connectable=0;fillColor=none;top=0;left=0;bottom=0;right=0;align=left;spacingLeft=6;fontStyle=5;overflow=hidden;html=1;whiteSpace=wrap;" vertex="1" parent="1kDg9G0LtiiuNaxr3lza-280">
          <mxGeometry x="49.999999999999545" width="120.00000000000045" height="30" as="geometry">
            <mxRectangle width="120.00000000000045" height="30" as="alternateBounds" />
          </mxGeometry>
        </mxCell>
        <mxCell id="1kDg9G0LtiiuNaxr3lza-335" value="number" style="shape=partialRectangle;connectable=0;fillColor=none;top=0;left=0;bottom=0;right=0;align=left;spacingLeft=6;fontStyle=0;overflow=hidden;html=1;whiteSpace=wrap;" vertex="1" parent="1kDg9G0LtiiuNaxr3lza-280">
          <mxGeometry x="170" width="79.99999999999955" height="30" as="geometry">
            <mxRectangle width="79.99999999999955" height="30" as="alternateBounds" />
          </mxGeometry>
        </mxCell>
        <mxCell id="1kDg9G0LtiiuNaxr3lza-283" value="" style="shape=tableRow;horizontal=0;startSize=0;swimlaneHead=0;swimlaneBody=0;fillColor=none;collapsible=0;dropTarget=0;points=[[0,0.5],[1,0.5]];portConstraint=eastwest;top=0;left=0;right=0;bottom=1;html=1;" vertex="1" parent="1kDg9G0LtiiuNaxr3lza-276">
          <mxGeometry y="90" width="249.99999999999955" height="30" as="geometry" />
        </mxCell>
        <mxCell id="1kDg9G0LtiiuNaxr3lza-284" value="FK" style="shape=partialRectangle;connectable=0;fillColor=none;top=0;left=0;bottom=0;right=0;fontStyle=1;overflow=hidden;html=1;whiteSpace=wrap;" vertex="1" parent="1kDg9G0LtiiuNaxr3lza-283">
          <mxGeometry width="49.999999999999545" height="30" as="geometry">
            <mxRectangle width="49.999999999999545" height="30" as="alternateBounds" />
          </mxGeometry>
        </mxCell>
        <mxCell id="1kDg9G0LtiiuNaxr3lza-285" value="art_style_id" style="shape=partialRectangle;connectable=0;fillColor=none;top=0;left=0;bottom=0;right=0;align=left;spacingLeft=6;fontStyle=5;overflow=hidden;html=1;whiteSpace=wrap;" vertex="1" parent="1kDg9G0LtiiuNaxr3lza-283">
          <mxGeometry x="49.999999999999545" width="120.00000000000045" height="30" as="geometry">
            <mxRectangle width="120.00000000000045" height="30" as="alternateBounds" />
          </mxGeometry>
        </mxCell>
        <mxCell id="1kDg9G0LtiiuNaxr3lza-337" value="number" style="shape=partialRectangle;connectable=0;fillColor=none;top=0;left=0;bottom=0;right=0;align=left;spacingLeft=6;fontStyle=0;overflow=hidden;html=1;whiteSpace=wrap;" vertex="1" parent="1kDg9G0LtiiuNaxr3lza-283">
          <mxGeometry x="170" width="79.99999999999955" height="30" as="geometry">
            <mxRectangle width="79.99999999999955" height="30" as="alternateBounds" />
          </mxGeometry>
        </mxCell>
        <mxCell id="1kDg9G0LtiiuNaxr3lza-289" value="" style="shape=tableRow;horizontal=0;startSize=0;swimlaneHead=0;swimlaneBody=0;fillColor=none;collapsible=0;dropTarget=0;points=[[0,0.5],[1,0.5]];portConstraint=eastwest;top=0;left=0;right=0;bottom=0;html=1;" vertex="1" parent="1kDg9G0LtiiuNaxr3lza-276">
          <mxGeometry y="120" width="249.99999999999955" height="30" as="geometry" />
        </mxCell>
        <mxCell id="1kDg9G0LtiiuNaxr3lza-290" value="" style="shape=partialRectangle;connectable=0;fillColor=none;top=0;left=0;bottom=0;right=0;editable=1;overflow=hidden;html=1;whiteSpace=wrap;" vertex="1" parent="1kDg9G0LtiiuNaxr3lza-289">
          <mxGeometry width="49.999999999999545" height="30" as="geometry">
            <mxRectangle width="49.999999999999545" height="30" as="alternateBounds" />
          </mxGeometry>
        </mxCell>
        <mxCell id="1kDg9G0LtiiuNaxr3lza-291" value="title" style="shape=partialRectangle;connectable=0;fillColor=none;top=0;left=0;bottom=0;right=0;align=left;spacingLeft=6;overflow=hidden;html=1;whiteSpace=wrap;fontStyle=1" vertex="1" parent="1kDg9G0LtiiuNaxr3lza-289">
          <mxGeometry x="49.999999999999545" width="120.00000000000045" height="30" as="geometry">
            <mxRectangle width="120.00000000000045" height="30" as="alternateBounds" />
          </mxGeometry>
        </mxCell>
        <mxCell id="1kDg9G0LtiiuNaxr3lza-338" value="text" style="shape=partialRectangle;connectable=0;fillColor=none;top=0;left=0;bottom=0;right=0;align=left;spacingLeft=6;overflow=hidden;html=1;whiteSpace=wrap;" vertex="1" parent="1kDg9G0LtiiuNaxr3lza-289">
          <mxGeometry x="170" width="79.99999999999955" height="30" as="geometry">
            <mxRectangle width="79.99999999999955" height="30" as="alternateBounds" />
          </mxGeometry>
        </mxCell>
        <mxCell id="1kDg9G0LtiiuNaxr3lza-292" value="" style="shape=tableRow;horizontal=0;startSize=0;swimlaneHead=0;swimlaneBody=0;fillColor=none;collapsible=0;dropTarget=0;points=[[0,0.5],[1,0.5]];portConstraint=eastwest;top=0;left=0;right=0;bottom=0;html=1;" vertex="1" parent="1kDg9G0LtiiuNaxr3lza-276">
          <mxGeometry y="150" width="249.99999999999955" height="30" as="geometry" />
        </mxCell>
        <mxCell id="1kDg9G0LtiiuNaxr3lza-293" value="" style="shape=partialRectangle;connectable=0;fillColor=none;top=0;left=0;bottom=0;right=0;editable=1;overflow=hidden;html=1;whiteSpace=wrap;" vertex="1" parent="1kDg9G0LtiiuNaxr3lza-292">
          <mxGeometry width="49.999999999999545" height="30" as="geometry">
            <mxRectangle width="49.999999999999545" height="30" as="alternateBounds" />
          </mxGeometry>
        </mxCell>
        <mxCell id="1kDg9G0LtiiuNaxr3lza-294" value="description" style="shape=partialRectangle;connectable=0;fillColor=none;top=0;left=0;bottom=0;right=0;align=left;spacingLeft=6;overflow=hidden;html=1;whiteSpace=wrap;fontStyle=1" vertex="1" parent="1kDg9G0LtiiuNaxr3lza-292">
          <mxGeometry x="49.999999999999545" width="120.00000000000045" height="30" as="geometry">
            <mxRectangle width="120.00000000000045" height="30" as="alternateBounds" />
          </mxGeometry>
        </mxCell>
        <mxCell id="1kDg9G0LtiiuNaxr3lza-339" value="text" style="shape=partialRectangle;connectable=0;fillColor=none;top=0;left=0;bottom=0;right=0;align=left;spacingLeft=6;overflow=hidden;html=1;whiteSpace=wrap;" vertex="1" parent="1kDg9G0LtiiuNaxr3lza-292">
          <mxGeometry x="170" width="79.99999999999955" height="30" as="geometry">
            <mxRectangle width="79.99999999999955" height="30" as="alternateBounds" />
          </mxGeometry>
        </mxCell>
        <mxCell id="1kDg9G0LtiiuNaxr3lza-286" value="" style="shape=tableRow;horizontal=0;startSize=0;swimlaneHead=0;swimlaneBody=0;fillColor=none;collapsible=0;dropTarget=0;points=[[0,0.5],[1,0.5]];portConstraint=eastwest;top=0;left=0;right=0;bottom=0;html=1;" vertex="1" parent="1kDg9G0LtiiuNaxr3lza-276">
          <mxGeometry y="180" width="249.99999999999955" height="30" as="geometry" />
        </mxCell>
        <mxCell id="1kDg9G0LtiiuNaxr3lza-287" value="" style="shape=partialRectangle;connectable=0;fillColor=none;top=0;left=0;bottom=0;right=0;editable=1;overflow=hidden;html=1;whiteSpace=wrap;" vertex="1" parent="1kDg9G0LtiiuNaxr3lza-286">
          <mxGeometry width="49.999999999999545" height="30" as="geometry">
            <mxRectangle width="49.999999999999545" height="30" as="alternateBounds" />
          </mxGeometry>
        </mxCell>
        <mxCell id="1kDg9G0LtiiuNaxr3lza-288" value="completed_date" style="shape=partialRectangle;connectable=0;fillColor=none;top=0;left=0;bottom=0;right=0;align=left;spacingLeft=6;overflow=hidden;html=1;whiteSpace=wrap;fontStyle=0" vertex="1" parent="1kDg9G0LtiiuNaxr3lza-286">
          <mxGeometry x="49.999999999999545" width="120.00000000000045" height="30" as="geometry">
            <mxRectangle width="120.00000000000045" height="30" as="alternateBounds" />
          </mxGeometry>
        </mxCell>
        <mxCell id="1kDg9G0LtiiuNaxr3lza-340" value="date" style="shape=partialRectangle;connectable=0;fillColor=none;top=0;left=0;bottom=0;right=0;align=left;spacingLeft=6;overflow=hidden;html=1;whiteSpace=wrap;" vertex="1" parent="1kDg9G0LtiiuNaxr3lza-286">
          <mxGeometry x="170" width="79.99999999999955" height="30" as="geometry">
            <mxRectangle width="79.99999999999955" height="30" as="alternateBounds" />
          </mxGeometry>
        </mxCell>
        <mxCell id="1kDg9G0LtiiuNaxr3lza-295" value="&lt;span style=&quot;text-wrap: nowrap;&quot;&gt;Artist&lt;/span&gt;" style="shape=table;startSize=30;container=1;collapsible=1;childLayout=tableLayout;fixedRows=1;rowLines=0;fontStyle=1;align=center;resizeLast=1;html=1;whiteSpace=wrap;" vertex="1" parent="1">
          <mxGeometry x="1232.5" y="160" width="240" height="240" as="geometry" />
        </mxCell>
        <mxCell id="1kDg9G0LtiiuNaxr3lza-296" value="" style="shape=tableRow;horizontal=0;startSize=0;swimlaneHead=0;swimlaneBody=0;fillColor=none;collapsible=0;dropTarget=0;points=[[0,0.5],[1,0.5]];portConstraint=eastwest;top=0;left=0;right=0;bottom=0;html=1;" vertex="1" parent="1kDg9G0LtiiuNaxr3lza-295">
          <mxGeometry y="30" width="240" height="30" as="geometry" />
        </mxCell>
        <mxCell id="1kDg9G0LtiiuNaxr3lza-297" value="PK" style="shape=partialRectangle;connectable=0;fillColor=none;top=0;left=0;bottom=0;right=0;fontStyle=1;overflow=hidden;html=1;whiteSpace=wrap;" vertex="1" parent="1kDg9G0LtiiuNaxr3lza-296">
          <mxGeometry width="49.999999999999545" height="30" as="geometry">
            <mxRectangle width="49.999999999999545" height="30" as="alternateBounds" />
          </mxGeometry>
        </mxCell>
        <mxCell id="1kDg9G0LtiiuNaxr3lza-298" value="artist_id" style="shape=partialRectangle;connectable=0;fillColor=none;top=0;left=0;bottom=0;right=0;align=left;spacingLeft=6;fontStyle=5;overflow=hidden;html=1;whiteSpace=wrap;" vertex="1" parent="1kDg9G0LtiiuNaxr3lza-296">
          <mxGeometry x="49.999999999999545" width="130.00000000000045" height="30" as="geometry">
            <mxRectangle width="130.00000000000045" height="30" as="alternateBounds" />
          </mxGeometry>
        </mxCell>
        <mxCell id="1kDg9G0LtiiuNaxr3lza-350" value="number" style="shape=partialRectangle;connectable=0;fillColor=none;top=0;left=0;bottom=0;right=0;align=left;spacingLeft=6;fontStyle=0;overflow=hidden;html=1;whiteSpace=wrap;" vertex="1" parent="1kDg9G0LtiiuNaxr3lza-296">
          <mxGeometry x="180" width="60" height="30" as="geometry">
            <mxRectangle width="60" height="30" as="alternateBounds" />
          </mxGeometry>
        </mxCell>
        <mxCell id="1kDg9G0LtiiuNaxr3lza-302" value="" style="shape=tableRow;horizontal=0;startSize=0;swimlaneHead=0;swimlaneBody=0;fillColor=none;collapsible=0;dropTarget=0;points=[[0,0.5],[1,0.5]];portConstraint=eastwest;top=0;left=0;right=0;bottom=1;html=1;" vertex="1" parent="1kDg9G0LtiiuNaxr3lza-295">
          <mxGeometry y="60" width="240" height="30" as="geometry" />
        </mxCell>
        <mxCell id="1kDg9G0LtiiuNaxr3lza-303" value="FK" style="shape=partialRectangle;connectable=0;fillColor=none;top=0;left=0;bottom=0;right=0;fontStyle=1;overflow=hidden;html=1;whiteSpace=wrap;" vertex="1" parent="1kDg9G0LtiiuNaxr3lza-302">
          <mxGeometry width="49.999999999999545" height="30" as="geometry">
            <mxRectangle width="49.999999999999545" height="30" as="alternateBounds" />
          </mxGeometry>
        </mxCell>
        <mxCell id="1kDg9G0LtiiuNaxr3lza-304" value="art_style_id" style="shape=partialRectangle;connectable=0;fillColor=none;top=0;left=0;bottom=0;right=0;align=left;spacingLeft=6;fontStyle=5;overflow=hidden;html=1;whiteSpace=wrap;" vertex="1" parent="1kDg9G0LtiiuNaxr3lza-302">
          <mxGeometry x="49.999999999999545" width="130.00000000000045" height="30" as="geometry">
            <mxRectangle width="130.00000000000045" height="30" as="alternateBounds" />
          </mxGeometry>
        </mxCell>
        <mxCell id="1kDg9G0LtiiuNaxr3lza-351" value="number" style="shape=partialRectangle;connectable=0;fillColor=none;top=0;left=0;bottom=0;right=0;align=left;spacingLeft=6;fontStyle=0;overflow=hidden;html=1;whiteSpace=wrap;" vertex="1" parent="1kDg9G0LtiiuNaxr3lza-302">
          <mxGeometry x="180" width="60" height="30" as="geometry">
            <mxRectangle width="60" height="30" as="alternateBounds" />
          </mxGeometry>
        </mxCell>
        <mxCell id="1kDg9G0LtiiuNaxr3lza-305" value="" style="shape=tableRow;horizontal=0;startSize=0;swimlaneHead=0;swimlaneBody=0;fillColor=none;collapsible=0;dropTarget=0;points=[[0,0.5],[1,0.5]];portConstraint=eastwest;top=0;left=0;right=0;bottom=0;html=1;" vertex="1" parent="1kDg9G0LtiiuNaxr3lza-295">
          <mxGeometry y="90" width="240" height="30" as="geometry" />
        </mxCell>
        <mxCell id="1kDg9G0LtiiuNaxr3lza-306" value="" style="shape=partialRectangle;connectable=0;fillColor=none;top=0;left=0;bottom=0;right=0;editable=1;overflow=hidden;html=1;whiteSpace=wrap;" vertex="1" parent="1kDg9G0LtiiuNaxr3lza-305">
          <mxGeometry width="49.999999999999545" height="30" as="geometry">
            <mxRectangle width="49.999999999999545" height="30" as="alternateBounds" />
          </mxGeometry>
        </mxCell>
        <mxCell id="1kDg9G0LtiiuNaxr3lza-307" value="first_name" style="shape=partialRectangle;connectable=0;fillColor=none;top=0;left=0;bottom=0;right=0;align=left;spacingLeft=6;overflow=hidden;html=1;whiteSpace=wrap;fontStyle=1" vertex="1" parent="1kDg9G0LtiiuNaxr3lza-305">
          <mxGeometry x="49.999999999999545" width="130.00000000000045" height="30" as="geometry">
            <mxRectangle width="130.00000000000045" height="30" as="alternateBounds" />
          </mxGeometry>
        </mxCell>
        <mxCell id="1kDg9G0LtiiuNaxr3lza-352" value="text" style="shape=partialRectangle;connectable=0;fillColor=none;top=0;left=0;bottom=0;right=0;align=left;spacingLeft=6;overflow=hidden;html=1;whiteSpace=wrap;" vertex="1" parent="1kDg9G0LtiiuNaxr3lza-305">
          <mxGeometry x="180" width="60" height="30" as="geometry">
            <mxRectangle width="60" height="30" as="alternateBounds" />
          </mxGeometry>
        </mxCell>
        <mxCell id="1kDg9G0LtiiuNaxr3lza-308" value="" style="shape=tableRow;horizontal=0;startSize=0;swimlaneHead=0;swimlaneBody=0;fillColor=none;collapsible=0;dropTarget=0;points=[[0,0.5],[1,0.5]];portConstraint=eastwest;top=0;left=0;right=0;bottom=0;html=1;" vertex="1" parent="1kDg9G0LtiiuNaxr3lza-295">
          <mxGeometry y="120" width="240" height="30" as="geometry" />
        </mxCell>
        <mxCell id="1kDg9G0LtiiuNaxr3lza-309" value="" style="shape=partialRectangle;connectable=0;fillColor=none;top=0;left=0;bottom=0;right=0;editable=1;overflow=hidden;html=1;whiteSpace=wrap;" vertex="1" parent="1kDg9G0LtiiuNaxr3lza-308">
          <mxGeometry width="49.999999999999545" height="30" as="geometry">
            <mxRectangle width="49.999999999999545" height="30" as="alternateBounds" />
          </mxGeometry>
        </mxCell>
        <mxCell id="1kDg9G0LtiiuNaxr3lza-310" value="middle_name" style="shape=partialRectangle;connectable=0;fillColor=none;top=0;left=0;bottom=0;right=0;align=left;spacingLeft=6;overflow=hidden;html=1;whiteSpace=wrap;" vertex="1" parent="1kDg9G0LtiiuNaxr3lza-308">
          <mxGeometry x="49.999999999999545" width="130.00000000000045" height="30" as="geometry">
            <mxRectangle width="130.00000000000045" height="30" as="alternateBounds" />
          </mxGeometry>
        </mxCell>
        <mxCell id="1kDg9G0LtiiuNaxr3lza-353" value="text" style="shape=partialRectangle;connectable=0;fillColor=none;top=0;left=0;bottom=0;right=0;align=left;spacingLeft=6;overflow=hidden;html=1;whiteSpace=wrap;" vertex="1" parent="1kDg9G0LtiiuNaxr3lza-308">
          <mxGeometry x="180" width="60" height="30" as="geometry">
            <mxRectangle width="60" height="30" as="alternateBounds" />
          </mxGeometry>
        </mxCell>
        <mxCell id="1kDg9G0LtiiuNaxr3lza-311" value="" style="shape=tableRow;horizontal=0;startSize=0;swimlaneHead=0;swimlaneBody=0;fillColor=none;collapsible=0;dropTarget=0;points=[[0,0.5],[1,0.5]];portConstraint=eastwest;top=0;left=0;right=0;bottom=0;html=1;" vertex="1" parent="1kDg9G0LtiiuNaxr3lza-295">
          <mxGeometry y="150" width="240" height="30" as="geometry" />
        </mxCell>
        <mxCell id="1kDg9G0LtiiuNaxr3lza-312" value="" style="shape=partialRectangle;connectable=0;fillColor=none;top=0;left=0;bottom=0;right=0;editable=1;overflow=hidden;html=1;whiteSpace=wrap;" vertex="1" parent="1kDg9G0LtiiuNaxr3lza-311">
          <mxGeometry width="49.999999999999545" height="30" as="geometry">
            <mxRectangle width="49.999999999999545" height="30" as="alternateBounds" />
          </mxGeometry>
        </mxCell>
        <mxCell id="1kDg9G0LtiiuNaxr3lza-313" value="last_name" style="shape=partialRectangle;connectable=0;fillColor=none;top=0;left=0;bottom=0;right=0;align=left;spacingLeft=6;overflow=hidden;html=1;whiteSpace=wrap;fontStyle=1" vertex="1" parent="1kDg9G0LtiiuNaxr3lza-311">
          <mxGeometry x="49.999999999999545" width="130.00000000000045" height="30" as="geometry">
            <mxRectangle width="130.00000000000045" height="30" as="alternateBounds" />
          </mxGeometry>
        </mxCell>
        <mxCell id="1kDg9G0LtiiuNaxr3lza-354" value="text" style="shape=partialRectangle;connectable=0;fillColor=none;top=0;left=0;bottom=0;right=0;align=left;spacingLeft=6;overflow=hidden;html=1;whiteSpace=wrap;" vertex="1" parent="1kDg9G0LtiiuNaxr3lza-311">
          <mxGeometry x="180" width="60" height="30" as="geometry">
            <mxRectangle width="60" height="30" as="alternateBounds" />
          </mxGeometry>
        </mxCell>
        <mxCell id="1kDg9G0LtiiuNaxr3lza-317" style="shape=tableRow;horizontal=0;startSize=0;swimlaneHead=0;swimlaneBody=0;fillColor=none;collapsible=0;dropTarget=0;points=[[0,0.5],[1,0.5]];portConstraint=eastwest;top=0;left=0;right=0;bottom=0;html=1;" vertex="1" parent="1kDg9G0LtiiuNaxr3lza-295">
          <mxGeometry y="180" width="240" height="30" as="geometry" />
        </mxCell>
        <mxCell id="1kDg9G0LtiiuNaxr3lza-318" style="shape=partialRectangle;connectable=0;fillColor=none;top=0;left=0;bottom=0;right=0;editable=1;overflow=hidden;html=1;whiteSpace=wrap;" vertex="1" parent="1kDg9G0LtiiuNaxr3lza-317">
          <mxGeometry width="49.999999999999545" height="30" as="geometry">
            <mxRectangle width="49.999999999999545" height="30" as="alternateBounds" />
          </mxGeometry>
        </mxCell>
        <mxCell id="1kDg9G0LtiiuNaxr3lza-319" value="birth_date" style="shape=partialRectangle;connectable=0;fillColor=none;top=0;left=0;bottom=0;right=0;align=left;spacingLeft=6;overflow=hidden;html=1;whiteSpace=wrap;fontStyle=1" vertex="1" parent="1kDg9G0LtiiuNaxr3lza-317">
          <mxGeometry x="49.999999999999545" width="130.00000000000045" height="30" as="geometry">
            <mxRectangle width="130.00000000000045" height="30" as="alternateBounds" />
          </mxGeometry>
        </mxCell>
        <mxCell id="1kDg9G0LtiiuNaxr3lza-355" value="date" style="shape=partialRectangle;connectable=0;fillColor=none;top=0;left=0;bottom=0;right=0;align=left;spacingLeft=6;overflow=hidden;html=1;whiteSpace=wrap;" vertex="1" parent="1kDg9G0LtiiuNaxr3lza-317">
          <mxGeometry x="180" width="60" height="30" as="geometry">
            <mxRectangle width="60" height="30" as="alternateBounds" />
          </mxGeometry>
        </mxCell>
        <mxCell id="1kDg9G0LtiiuNaxr3lza-320" style="shape=tableRow;horizontal=0;startSize=0;swimlaneHead=0;swimlaneBody=0;fillColor=none;collapsible=0;dropTarget=0;points=[[0,0.5],[1,0.5]];portConstraint=eastwest;top=0;left=0;right=0;bottom=0;html=1;" vertex="1" parent="1kDg9G0LtiiuNaxr3lza-295">
          <mxGeometry y="210" width="240" height="30" as="geometry" />
        </mxCell>
        <mxCell id="1kDg9G0LtiiuNaxr3lza-321" style="shape=partialRectangle;connectable=0;fillColor=none;top=0;left=0;bottom=0;right=0;editable=1;overflow=hidden;html=1;whiteSpace=wrap;" vertex="1" parent="1kDg9G0LtiiuNaxr3lza-320">
          <mxGeometry width="49.999999999999545" height="30" as="geometry">
            <mxRectangle width="49.999999999999545" height="30" as="alternateBounds" />
          </mxGeometry>
        </mxCell>
        <mxCell id="1kDg9G0LtiiuNaxr3lza-322" value="death_date" style="shape=partialRectangle;connectable=0;fillColor=none;top=0;left=0;bottom=0;right=0;align=left;spacingLeft=6;overflow=hidden;html=1;whiteSpace=wrap;" vertex="1" parent="1kDg9G0LtiiuNaxr3lza-320">
          <mxGeometry x="49.999999999999545" width="130.00000000000045" height="30" as="geometry">
            <mxRectangle width="130.00000000000045" height="30" as="alternateBounds" />
          </mxGeometry>
        </mxCell>
        <mxCell id="1kDg9G0LtiiuNaxr3lza-356" value="date" style="shape=partialRectangle;connectable=0;fillColor=none;top=0;left=0;bottom=0;right=0;align=left;spacingLeft=6;overflow=hidden;html=1;whiteSpace=wrap;" vertex="1" parent="1kDg9G0LtiiuNaxr3lza-320">
          <mxGeometry x="180" width="60" height="30" as="geometry">
            <mxRectangle width="60" height="30" as="alternateBounds" />
          </mxGeometry>
        </mxCell>
        <mxCell id="1kDg9G0LtiiuNaxr3lza-323" value="&lt;span style=&quot;text-wrap: wrap;&quot;&gt;Art_Piece_Artist&lt;/span&gt;" style="shape=table;startSize=30;container=1;collapsible=1;childLayout=tableLayout;fixedRows=1;rowLines=0;fontStyle=1;align=center;resizeLast=1;html=1;" vertex="1" parent="1">
          <mxGeometry x="1250" y="10" width="222.5" height="120" as="geometry" />
        </mxCell>
        <mxCell id="1kDg9G0LtiiuNaxr3lza-324" value="" style="shape=tableRow;horizontal=0;startSize=0;swimlaneHead=0;swimlaneBody=0;fillColor=none;collapsible=0;dropTarget=0;points=[[0,0.5],[1,0.5]];portConstraint=eastwest;top=0;left=0;right=0;bottom=1;" vertex="1" parent="1kDg9G0LtiiuNaxr3lza-323">
          <mxGeometry y="30" width="222.5" height="30" as="geometry" />
        </mxCell>
        <mxCell id="1kDg9G0LtiiuNaxr3lza-325" value="PK" style="shape=partialRectangle;connectable=0;fillColor=none;top=0;left=0;bottom=0;right=0;fontStyle=1;overflow=hidden;whiteSpace=wrap;html=1;" vertex="1" parent="1kDg9G0LtiiuNaxr3lza-324">
          <mxGeometry width="30" height="30" as="geometry">
            <mxRectangle width="30" height="30" as="alternateBounds" />
          </mxGeometry>
        </mxCell>
        <mxCell id="1kDg9G0LtiiuNaxr3lza-326" value="art_piece_artist_id" style="shape=partialRectangle;connectable=0;fillColor=none;top=0;left=0;bottom=0;right=0;align=left;spacingLeft=6;fontStyle=5;overflow=hidden;whiteSpace=wrap;html=1;" vertex="1" parent="1kDg9G0LtiiuNaxr3lza-324">
          <mxGeometry x="30" width="122.49999999999955" height="30" as="geometry">
            <mxRectangle width="122.49999999999955" height="30" as="alternateBounds" />
          </mxGeometry>
        </mxCell>
        <mxCell id="1kDg9G0LtiiuNaxr3lza-347" value="number" style="shape=partialRectangle;connectable=0;fillColor=none;top=0;left=0;bottom=0;right=0;align=left;spacingLeft=6;fontStyle=0;overflow=hidden;whiteSpace=wrap;html=1;" vertex="1" parent="1kDg9G0LtiiuNaxr3lza-324">
          <mxGeometry x="152.49999999999955" width="70.00000000000045" height="30" as="geometry">
            <mxRectangle width="70.00000000000045" height="30" as="alternateBounds" />
          </mxGeometry>
        </mxCell>
        <mxCell id="1kDg9G0LtiiuNaxr3lza-327" value="" style="shape=tableRow;horizontal=0;startSize=0;swimlaneHead=0;swimlaneBody=0;fillColor=none;collapsible=0;dropTarget=0;points=[[0,0.5],[1,0.5]];portConstraint=eastwest;top=0;left=0;right=0;bottom=0;" vertex="1" parent="1kDg9G0LtiiuNaxr3lza-323">
          <mxGeometry y="60" width="222.5" height="30" as="geometry" />
        </mxCell>
        <mxCell id="1kDg9G0LtiiuNaxr3lza-328" value="FK" style="shape=partialRectangle;connectable=0;fillColor=none;top=0;left=0;bottom=0;right=0;editable=1;overflow=hidden;whiteSpace=wrap;html=1;" vertex="1" parent="1kDg9G0LtiiuNaxr3lza-327">
          <mxGeometry width="30" height="30" as="geometry">
            <mxRectangle width="30" height="30" as="alternateBounds" />
          </mxGeometry>
        </mxCell>
        <mxCell id="1kDg9G0LtiiuNaxr3lza-329" value="art_piece_id" style="shape=partialRectangle;connectable=0;fillColor=none;top=0;left=0;bottom=0;right=0;align=left;spacingLeft=6;overflow=hidden;whiteSpace=wrap;html=1;" vertex="1" parent="1kDg9G0LtiiuNaxr3lza-327">
          <mxGeometry x="30" width="122.49999999999955" height="30" as="geometry">
            <mxRectangle width="122.49999999999955" height="30" as="alternateBounds" />
          </mxGeometry>
        </mxCell>
        <mxCell id="1kDg9G0LtiiuNaxr3lza-348" value="number" style="shape=partialRectangle;connectable=0;fillColor=none;top=0;left=0;bottom=0;right=0;align=left;spacingLeft=6;overflow=hidden;whiteSpace=wrap;html=1;" vertex="1" parent="1kDg9G0LtiiuNaxr3lza-327">
          <mxGeometry x="152.49999999999955" width="70.00000000000045" height="30" as="geometry">
            <mxRectangle width="70.00000000000045" height="30" as="alternateBounds" />
          </mxGeometry>
        </mxCell>
        <mxCell id="1kDg9G0LtiiuNaxr3lza-330" value="" style="shape=tableRow;horizontal=0;startSize=0;swimlaneHead=0;swimlaneBody=0;fillColor=none;collapsible=0;dropTarget=0;points=[[0,0.5],[1,0.5]];portConstraint=eastwest;top=0;left=0;right=0;bottom=0;" vertex="1" parent="1kDg9G0LtiiuNaxr3lza-323">
          <mxGeometry y="90" width="222.5" height="30" as="geometry" />
        </mxCell>
        <mxCell id="1kDg9G0LtiiuNaxr3lza-331" value="FK" style="shape=partialRectangle;connectable=0;fillColor=none;top=0;left=0;bottom=0;right=0;editable=1;overflow=hidden;whiteSpace=wrap;html=1;" vertex="1" parent="1kDg9G0LtiiuNaxr3lza-330">
          <mxGeometry width="30" height="30" as="geometry">
            <mxRectangle width="30" height="30" as="alternateBounds" />
          </mxGeometry>
        </mxCell>
        <mxCell id="1kDg9G0LtiiuNaxr3lza-332" value="artist_id" style="shape=partialRectangle;connectable=0;fillColor=none;top=0;left=0;bottom=0;right=0;align=left;spacingLeft=6;overflow=hidden;whiteSpace=wrap;html=1;" vertex="1" parent="1kDg9G0LtiiuNaxr3lza-330">
          <mxGeometry x="30" width="122.49999999999955" height="30" as="geometry">
            <mxRectangle width="122.49999999999955" height="30" as="alternateBounds" />
          </mxGeometry>
        </mxCell>
        <mxCell id="1kDg9G0LtiiuNaxr3lza-349" value="number" style="shape=partialRectangle;connectable=0;fillColor=none;top=0;left=0;bottom=0;right=0;align=left;spacingLeft=6;overflow=hidden;whiteSpace=wrap;html=1;" vertex="1" parent="1kDg9G0LtiiuNaxr3lza-330">
          <mxGeometry x="152.49999999999955" width="70.00000000000045" height="30" as="geometry">
            <mxRectangle width="70.00000000000045" height="30" as="alternateBounds" />
          </mxGeometry>
        </mxCell>
        <mxCell id="1kDg9G0LtiiuNaxr3lza-333" value="" style="edgeStyle=entityRelationEdgeStyle;fontSize=12;html=1;endArrow=ERoneToMany;startArrow=ERmandOne;rounded=0;exitX=1.006;exitY=0.774;exitDx=0;exitDy=0;exitPerimeter=0;entryX=0;entryY=0.5;entryDx=0;entryDy=0;" edge="1" parent="1" source="3Ezc2zgL5UM-MFxwJ3yi-157" target="1kDg9G0LtiiuNaxr3lza-280">
          <mxGeometry width="100" height="100" relative="1" as="geometry">
            <mxPoint x="650" y="430" as="sourcePoint" />
            <mxPoint x="750" y="330" as="targetPoint" />
            <Array as="points">
              <mxPoint x="740" y="330" />
            </Array>
          </mxGeometry>
        </mxCell>
        <mxCell id="1kDg9G0LtiiuNaxr3lza-449" value="has" style="edgeLabel;html=1;align=center;verticalAlign=middle;resizable=0;points=[];" vertex="1" connectable="0" parent="1kDg9G0LtiiuNaxr3lza-333">
          <mxGeometry x="0.0526" y="-4" relative="1" as="geometry">
            <mxPoint as="offset" />
          </mxGeometry>
        </mxCell>
        <mxCell id="1kDg9G0LtiiuNaxr3lza-341" value="" style="edgeStyle=entityRelationEdgeStyle;fontSize=12;html=1;endArrow=ERzeroToMany;startArrow=ERmandOne;rounded=0;entryX=1;entryY=0.5;entryDx=0;entryDy=0;exitX=0;exitY=0.5;exitDx=0;exitDy=0;" edge="1" parent="1" source="3Ezc2zgL5UM-MFxwJ3yi-106" target="1kDg9G0LtiiuNaxr3lza-283">
          <mxGeometry width="100" height="100" relative="1" as="geometry">
            <mxPoint x="1265.0000000000005" y="640.0000000000002" as="sourcePoint" />
            <mxPoint x="1235.000000000001" y="360.0000000000002" as="targetPoint" />
          </mxGeometry>
        </mxCell>
        <mxCell id="1kDg9G0LtiiuNaxr3lza-452" value="belongs to" style="edgeLabel;html=1;align=center;verticalAlign=middle;resizable=0;points=[];" vertex="1" connectable="0" parent="1kDg9G0LtiiuNaxr3lza-341">
          <mxGeometry x="0.0246" y="4" relative="1" as="geometry">
            <mxPoint as="offset" />
          </mxGeometry>
        </mxCell>
        <mxCell id="1kDg9G0LtiiuNaxr3lza-342" value="" style="edgeStyle=entityRelationEdgeStyle;fontSize=12;html=1;endArrow=ERoneToMany;startArrow=ERmandOne;rounded=0;entryX=0;entryY=0.5;entryDx=0;entryDy=0;exitX=1;exitY=0.5;exitDx=0;exitDy=0;" edge="1" parent="1" source="1kDg9G0LtiiuNaxr3lza-277" target="1kDg9G0LtiiuNaxr3lza-327">
          <mxGeometry width="100" height="100" relative="1" as="geometry">
            <mxPoint x="650" y="430" as="sourcePoint" />
            <mxPoint x="750" y="330" as="targetPoint" />
          </mxGeometry>
        </mxCell>
        <mxCell id="1kDg9G0LtiiuNaxr3lza-450" value="belongs to" style="edgeLabel;html=1;align=center;verticalAlign=middle;resizable=0;points=[];" vertex="1" connectable="0" parent="1kDg9G0LtiiuNaxr3lza-342">
          <mxGeometry x="0.038" y="-2" relative="1" as="geometry">
            <mxPoint as="offset" />
          </mxGeometry>
        </mxCell>
        <mxCell id="1kDg9G0LtiiuNaxr3lza-343" value="" style="edgeStyle=entityRelationEdgeStyle;fontSize=12;html=1;endArrow=ERoneToMany;startArrow=ERmandOne;rounded=0;entryX=1;entryY=0.5;entryDx=0;entryDy=0;exitX=1;exitY=0.5;exitDx=0;exitDy=0;" edge="1" parent="1" source="1kDg9G0LtiiuNaxr3lza-296" target="1kDg9G0LtiiuNaxr3lza-330">
          <mxGeometry width="100" height="100" relative="1" as="geometry">
            <mxPoint x="650" y="430" as="sourcePoint" />
            <mxPoint x="750" y="330" as="targetPoint" />
          </mxGeometry>
        </mxCell>
        <mxCell id="1kDg9G0LtiiuNaxr3lza-451" value="has" style="edgeLabel;html=1;align=center;verticalAlign=middle;resizable=0;points=[];" vertex="1" connectable="0" parent="1kDg9G0LtiiuNaxr3lza-343">
          <mxGeometry x="0.0459" relative="1" as="geometry">
            <mxPoint as="offset" />
          </mxGeometry>
        </mxCell>
        <mxCell id="1kDg9G0LtiiuNaxr3lza-357" value="" style="edgeStyle=entityRelationEdgeStyle;fontSize=12;html=1;endArrow=ERoneToMany;startArrow=ERmandOne;rounded=0;exitX=1;exitY=0.5;exitDx=0;exitDy=0;entryX=1;entryY=0.5;entryDx=0;entryDy=0;" edge="1" parent="1" source="3Ezc2zgL5UM-MFxwJ3yi-106" target="1kDg9G0LtiiuNaxr3lza-302">
          <mxGeometry width="100" height="100" relative="1" as="geometry">
            <mxPoint x="1010" y="610" as="sourcePoint" />
            <mxPoint x="1100" y="550" as="targetPoint" />
          </mxGeometry>
        </mxCell>
        <mxCell id="1kDg9G0LtiiuNaxr3lza-453" value="has" style="edgeLabel;html=1;align=center;verticalAlign=middle;resizable=0;points=[];" vertex="1" connectable="0" parent="1kDg9G0LtiiuNaxr3lza-357">
          <mxGeometry x="-0.0513" y="-3" relative="1" as="geometry">
            <mxPoint as="offset" />
          </mxGeometry>
        </mxCell>
        <mxCell id="1kDg9G0LtiiuNaxr3lza-370" value="" style="edgeStyle=entityRelationEdgeStyle;fontSize=12;html=1;endArrow=ERoneToMany;startArrow=ERmandOne;rounded=0;exitX=1;exitY=0.5;exitDx=0;exitDy=0;entryX=0;entryY=0.5;entryDx=0;entryDy=0;" edge="1" parent="1" source="3Ezc2zgL5UM-MFxwJ3yi-93" target="1kDg9G0LtiiuNaxr3lza-361">
          <mxGeometry width="100" height="100" relative="1" as="geometry">
            <mxPoint x="710" y="430" as="sourcePoint" />
            <mxPoint x="380" y="530" as="targetPoint" />
          </mxGeometry>
        </mxCell>
        <mxCell id="1kDg9G0LtiiuNaxr3lza-441" value="charge" style="edgeLabel;html=1;align=center;verticalAlign=middle;resizable=0;points=[];" vertex="1" connectable="0" parent="1kDg9G0LtiiuNaxr3lza-370">
          <mxGeometry x="-0.0531" relative="1" as="geometry">
            <mxPoint as="offset" />
          </mxGeometry>
        </mxCell>
        <mxCell id="1kDg9G0LtiiuNaxr3lza-371" value="Province" style="shape=table;startSize=30;container=1;collapsible=1;childLayout=tableLayout;fixedRows=1;rowLines=0;fontStyle=1;align=center;resizeLast=1;html=1;whiteSpace=wrap;" vertex="1" parent="1">
          <mxGeometry x="580" y="545" width="219.99999999999955" height="120" as="geometry" />
        </mxCell>
        <mxCell id="1kDg9G0LtiiuNaxr3lza-372" value="" style="shape=tableRow;horizontal=0;startSize=0;swimlaneHead=0;swimlaneBody=0;fillColor=none;collapsible=0;dropTarget=0;points=[[0,0.5],[1,0.5]];portConstraint=eastwest;top=0;left=0;right=0;bottom=0;html=1;" vertex="1" parent="1kDg9G0LtiiuNaxr3lza-371">
          <mxGeometry y="30" width="219.99999999999955" height="30" as="geometry" />
        </mxCell>
        <mxCell id="1kDg9G0LtiiuNaxr3lza-373" value="PK" style="shape=partialRectangle;connectable=0;fillColor=none;top=0;left=0;bottom=0;right=0;fontStyle=1;overflow=hidden;html=1;whiteSpace=wrap;" vertex="1" parent="1kDg9G0LtiiuNaxr3lza-372">
          <mxGeometry width="50" height="30" as="geometry">
            <mxRectangle width="50" height="30" as="alternateBounds" />
          </mxGeometry>
        </mxCell>
        <mxCell id="1kDg9G0LtiiuNaxr3lza-374" value="province_id" style="shape=partialRectangle;connectable=0;fillColor=none;top=0;left=0;bottom=0;right=0;align=left;spacingLeft=6;fontStyle=5;overflow=hidden;html=1;whiteSpace=wrap;" vertex="1" parent="1kDg9G0LtiiuNaxr3lza-372">
          <mxGeometry x="50" width="110" height="30" as="geometry">
            <mxRectangle width="110" height="30" as="alternateBounds" />
          </mxGeometry>
        </mxCell>
        <mxCell id="1kDg9G0LtiiuNaxr3lza-416" value="number" style="shape=partialRectangle;connectable=0;fillColor=none;top=0;left=0;bottom=0;right=0;align=left;spacingLeft=6;fontStyle=0;overflow=hidden;html=1;whiteSpace=wrap;" vertex="1" parent="1kDg9G0LtiiuNaxr3lza-372">
          <mxGeometry x="160" width="59.999999999999545" height="30" as="geometry">
            <mxRectangle width="59.999999999999545" height="30" as="alternateBounds" />
          </mxGeometry>
        </mxCell>
        <mxCell id="1kDg9G0LtiiuNaxr3lza-375" value="" style="shape=tableRow;horizontal=0;startSize=0;swimlaneHead=0;swimlaneBody=0;fillColor=none;collapsible=0;dropTarget=0;points=[[0,0.5],[1,0.5]];portConstraint=eastwest;top=0;left=0;right=0;bottom=1;html=1;" vertex="1" parent="1kDg9G0LtiiuNaxr3lza-371">
          <mxGeometry y="60" width="219.99999999999955" height="30" as="geometry" />
        </mxCell>
        <mxCell id="1kDg9G0LtiiuNaxr3lza-376" value="FK" style="shape=partialRectangle;connectable=0;fillColor=none;top=0;left=0;bottom=0;right=0;fontStyle=1;overflow=hidden;html=1;whiteSpace=wrap;" vertex="1" parent="1kDg9G0LtiiuNaxr3lza-375">
          <mxGeometry width="50" height="30" as="geometry">
            <mxRectangle width="50" height="30" as="alternateBounds" />
          </mxGeometry>
        </mxCell>
        <mxCell id="1kDg9G0LtiiuNaxr3lza-377" value="country_id" style="shape=partialRectangle;connectable=0;fillColor=none;top=0;left=0;bottom=0;right=0;align=left;spacingLeft=6;fontStyle=5;overflow=hidden;html=1;whiteSpace=wrap;" vertex="1" parent="1kDg9G0LtiiuNaxr3lza-375">
          <mxGeometry x="50" width="110" height="30" as="geometry">
            <mxRectangle width="110" height="30" as="alternateBounds" />
          </mxGeometry>
        </mxCell>
        <mxCell id="1kDg9G0LtiiuNaxr3lza-417" value="number" style="shape=partialRectangle;connectable=0;fillColor=none;top=0;left=0;bottom=0;right=0;align=left;spacingLeft=6;fontStyle=0;overflow=hidden;html=1;whiteSpace=wrap;" vertex="1" parent="1kDg9G0LtiiuNaxr3lza-375">
          <mxGeometry x="160" width="59.999999999999545" height="30" as="geometry">
            <mxRectangle width="59.999999999999545" height="30" as="alternateBounds" />
          </mxGeometry>
        </mxCell>
        <mxCell id="1kDg9G0LtiiuNaxr3lza-378" value="" style="shape=tableRow;horizontal=0;startSize=0;swimlaneHead=0;swimlaneBody=0;fillColor=none;collapsible=0;dropTarget=0;points=[[0,0.5],[1,0.5]];portConstraint=eastwest;top=0;left=0;right=0;bottom=0;html=1;" vertex="1" parent="1kDg9G0LtiiuNaxr3lza-371">
          <mxGeometry y="90" width="219.99999999999955" height="30" as="geometry" />
        </mxCell>
        <mxCell id="1kDg9G0LtiiuNaxr3lza-379" value="" style="shape=partialRectangle;connectable=0;fillColor=none;top=0;left=0;bottom=0;right=0;editable=1;overflow=hidden;html=1;whiteSpace=wrap;" vertex="1" parent="1kDg9G0LtiiuNaxr3lza-378">
          <mxGeometry width="50" height="30" as="geometry">
            <mxRectangle width="50" height="30" as="alternateBounds" />
          </mxGeometry>
        </mxCell>
        <mxCell id="1kDg9G0LtiiuNaxr3lza-380" value="province_name" style="shape=partialRectangle;connectable=0;fillColor=none;top=0;left=0;bottom=0;right=0;align=left;spacingLeft=6;overflow=hidden;html=1;whiteSpace=wrap;fontStyle=1" vertex="1" parent="1kDg9G0LtiiuNaxr3lza-378">
          <mxGeometry x="50" width="110" height="30" as="geometry">
            <mxRectangle width="110" height="30" as="alternateBounds" />
          </mxGeometry>
        </mxCell>
        <mxCell id="1kDg9G0LtiiuNaxr3lza-418" value="text" style="shape=partialRectangle;connectable=0;fillColor=none;top=0;left=0;bottom=0;right=0;align=left;spacingLeft=6;overflow=hidden;html=1;whiteSpace=wrap;" vertex="1" parent="1kDg9G0LtiiuNaxr3lza-378">
          <mxGeometry x="160" width="59.999999999999545" height="30" as="geometry">
            <mxRectangle width="59.999999999999545" height="30" as="alternateBounds" />
          </mxGeometry>
        </mxCell>
        <mxCell id="1kDg9G0LtiiuNaxr3lza-390" value="Address" style="shape=table;startSize=30;container=1;collapsible=1;childLayout=tableLayout;fixedRows=1;rowLines=0;fontStyle=1;align=center;resizeLast=1;html=1;whiteSpace=wrap;" vertex="1" parent="1">
          <mxGeometry x="40" y="550" width="200" height="150" as="geometry" />
        </mxCell>
        <mxCell id="1kDg9G0LtiiuNaxr3lza-391" value="" style="shape=tableRow;horizontal=0;startSize=0;swimlaneHead=0;swimlaneBody=0;fillColor=none;collapsible=0;dropTarget=0;points=[[0,0.5],[1,0.5]];portConstraint=eastwest;top=0;left=0;right=0;bottom=0;html=1;" vertex="1" parent="1kDg9G0LtiiuNaxr3lza-390">
          <mxGeometry y="30" width="200" height="30" as="geometry" />
        </mxCell>
        <mxCell id="1kDg9G0LtiiuNaxr3lza-392" value="PK" style="shape=partialRectangle;connectable=0;fillColor=none;top=0;left=0;bottom=0;right=0;fontStyle=1;overflow=hidden;html=1;whiteSpace=wrap;" vertex="1" parent="1kDg9G0LtiiuNaxr3lza-391">
          <mxGeometry width="40" height="30" as="geometry">
            <mxRectangle width="40" height="30" as="alternateBounds" />
          </mxGeometry>
        </mxCell>
        <mxCell id="1kDg9G0LtiiuNaxr3lza-393" value="address_id" style="shape=partialRectangle;connectable=0;fillColor=none;top=0;left=0;bottom=0;right=0;align=left;spacingLeft=6;fontStyle=5;overflow=hidden;html=1;whiteSpace=wrap;" vertex="1" parent="1kDg9G0LtiiuNaxr3lza-391">
          <mxGeometry x="40" width="100" height="30" as="geometry">
            <mxRectangle width="100" height="30" as="alternateBounds" />
          </mxGeometry>
        </mxCell>
        <mxCell id="1kDg9G0LtiiuNaxr3lza-406" value="number" style="shape=partialRectangle;connectable=0;fillColor=none;top=0;left=0;bottom=0;right=0;align=left;spacingLeft=6;fontStyle=0;overflow=hidden;html=1;whiteSpace=wrap;" vertex="1" parent="1kDg9G0LtiiuNaxr3lza-391">
          <mxGeometry x="140" width="60" height="30" as="geometry">
            <mxRectangle width="60" height="30" as="alternateBounds" />
          </mxGeometry>
        </mxCell>
        <mxCell id="1kDg9G0LtiiuNaxr3lza-397" value="" style="shape=tableRow;horizontal=0;startSize=0;swimlaneHead=0;swimlaneBody=0;fillColor=none;collapsible=0;dropTarget=0;points=[[0,0.5],[1,0.5]];portConstraint=eastwest;top=0;left=0;right=0;bottom=1;html=1;" vertex="1" parent="1kDg9G0LtiiuNaxr3lza-390">
          <mxGeometry y="60" width="200" height="30" as="geometry" />
        </mxCell>
        <mxCell id="1kDg9G0LtiiuNaxr3lza-398" value="FK" style="shape=partialRectangle;connectable=0;fillColor=none;top=0;left=0;bottom=0;right=0;fontStyle=1;overflow=hidden;html=1;whiteSpace=wrap;" vertex="1" parent="1kDg9G0LtiiuNaxr3lza-397">
          <mxGeometry width="40" height="30" as="geometry">
            <mxRectangle width="40" height="30" as="alternateBounds" />
          </mxGeometry>
        </mxCell>
        <mxCell id="1kDg9G0LtiiuNaxr3lza-399" value="city_id" style="shape=partialRectangle;connectable=0;fillColor=none;top=0;left=0;bottom=0;right=0;align=left;spacingLeft=6;fontStyle=5;overflow=hidden;html=1;whiteSpace=wrap;" vertex="1" parent="1kDg9G0LtiiuNaxr3lza-397">
          <mxGeometry x="40" width="100" height="30" as="geometry">
            <mxRectangle width="100" height="30" as="alternateBounds" />
          </mxGeometry>
        </mxCell>
        <mxCell id="1kDg9G0LtiiuNaxr3lza-407" value="number" style="shape=partialRectangle;connectable=0;fillColor=none;top=0;left=0;bottom=0;right=0;align=left;spacingLeft=6;fontStyle=0;overflow=hidden;html=1;whiteSpace=wrap;" vertex="1" parent="1kDg9G0LtiiuNaxr3lza-397">
          <mxGeometry x="140" width="60" height="30" as="geometry">
            <mxRectangle width="60" height="30" as="alternateBounds" />
          </mxGeometry>
        </mxCell>
        <mxCell id="1kDg9G0LtiiuNaxr3lza-400" value="" style="shape=tableRow;horizontal=0;startSize=0;swimlaneHead=0;swimlaneBody=0;fillColor=none;collapsible=0;dropTarget=0;points=[[0,0.5],[1,0.5]];portConstraint=eastwest;top=0;left=0;right=0;bottom=0;html=1;" vertex="1" parent="1kDg9G0LtiiuNaxr3lza-390">
          <mxGeometry y="90" width="200" height="30" as="geometry" />
        </mxCell>
        <mxCell id="1kDg9G0LtiiuNaxr3lza-401" value="" style="shape=partialRectangle;connectable=0;fillColor=none;top=0;left=0;bottom=0;right=0;editable=1;overflow=hidden;html=1;whiteSpace=wrap;" vertex="1" parent="1kDg9G0LtiiuNaxr3lza-400">
          <mxGeometry width="40" height="30" as="geometry">
            <mxRectangle width="40" height="30" as="alternateBounds" />
          </mxGeometry>
        </mxCell>
        <mxCell id="1kDg9G0LtiiuNaxr3lza-402" value="road_address" style="shape=partialRectangle;connectable=0;fillColor=none;top=0;left=0;bottom=0;right=0;align=left;spacingLeft=6;overflow=hidden;html=1;whiteSpace=wrap;fontStyle=1" vertex="1" parent="1kDg9G0LtiiuNaxr3lza-400">
          <mxGeometry x="40" width="100" height="30" as="geometry">
            <mxRectangle width="100" height="30" as="alternateBounds" />
          </mxGeometry>
        </mxCell>
        <mxCell id="1kDg9G0LtiiuNaxr3lza-408" value="text" style="shape=partialRectangle;connectable=0;fillColor=none;top=0;left=0;bottom=0;right=0;align=left;spacingLeft=6;overflow=hidden;html=1;whiteSpace=wrap;fontStyle=0" vertex="1" parent="1kDg9G0LtiiuNaxr3lza-400">
          <mxGeometry x="140" width="60" height="30" as="geometry">
            <mxRectangle width="60" height="30" as="alternateBounds" />
          </mxGeometry>
        </mxCell>
        <mxCell id="1kDg9G0LtiiuNaxr3lza-403" style="shape=tableRow;horizontal=0;startSize=0;swimlaneHead=0;swimlaneBody=0;fillColor=none;collapsible=0;dropTarget=0;points=[[0,0.5],[1,0.5]];portConstraint=eastwest;top=0;left=0;right=0;bottom=0;html=1;" vertex="1" parent="1kDg9G0LtiiuNaxr3lza-390">
          <mxGeometry y="120" width="200" height="30" as="geometry" />
        </mxCell>
        <mxCell id="1kDg9G0LtiiuNaxr3lza-404" style="shape=partialRectangle;connectable=0;fillColor=none;top=0;left=0;bottom=0;right=0;editable=1;overflow=hidden;html=1;whiteSpace=wrap;" vertex="1" parent="1kDg9G0LtiiuNaxr3lza-403">
          <mxGeometry width="40" height="30" as="geometry">
            <mxRectangle width="40" height="30" as="alternateBounds" />
          </mxGeometry>
        </mxCell>
        <mxCell id="1kDg9G0LtiiuNaxr3lza-405" value="postal_code" style="shape=partialRectangle;connectable=0;fillColor=none;top=0;left=0;bottom=0;right=0;align=left;spacingLeft=6;overflow=hidden;html=1;whiteSpace=wrap;fontStyle=1" vertex="1" parent="1kDg9G0LtiiuNaxr3lza-403">
          <mxGeometry x="40" width="100" height="30" as="geometry">
            <mxRectangle width="100" height="30" as="alternateBounds" />
          </mxGeometry>
        </mxCell>
        <mxCell id="1kDg9G0LtiiuNaxr3lza-409" value="text" style="shape=partialRectangle;connectable=0;fillColor=none;top=0;left=0;bottom=0;right=0;align=left;spacingLeft=6;overflow=hidden;html=1;whiteSpace=wrap;fontStyle=0" vertex="1" parent="1kDg9G0LtiiuNaxr3lza-403">
          <mxGeometry x="140" width="60" height="30" as="geometry">
            <mxRectangle width="60" height="30" as="alternateBounds" />
          </mxGeometry>
        </mxCell>
        <mxCell id="1kDg9G0LtiiuNaxr3lza-415" value="" style="edgeStyle=entityRelationEdgeStyle;fontSize=12;html=1;endArrow=ERoneToMany;startArrow=ERmandOne;rounded=0;exitX=0;exitY=0.5;exitDx=0;exitDy=0;entryX=1;entryY=0.5;entryDx=0;entryDy=0;" edge="1" parent="1" source="1kDg9G0LtiiuNaxr3lza-156" target="1kDg9G0LtiiuNaxr3lza-397">
          <mxGeometry width="100" height="100" relative="1" as="geometry">
            <mxPoint x="680" y="400" as="sourcePoint" />
            <mxPoint x="780" y="300" as="targetPoint" />
          </mxGeometry>
        </mxCell>
        <mxCell id="1kDg9G0LtiiuNaxr3lza-440" value="is in" style="edgeLabel;html=1;align=center;verticalAlign=middle;resizable=0;points=[];" vertex="1" connectable="0" parent="1kDg9G0LtiiuNaxr3lza-415">
          <mxGeometry x="0.1741" relative="1" as="geometry">
            <mxPoint as="offset" />
          </mxGeometry>
        </mxCell>
        <mxCell id="1kDg9G0LtiiuNaxr3lza-419" value="" style="edgeStyle=entityRelationEdgeStyle;fontSize=12;html=1;endArrow=ERoneToMany;startArrow=ERmandOne;rounded=0;entryX=1;entryY=0.5;entryDx=0;entryDy=0;exitX=0;exitY=0.5;exitDx=0;exitDy=0;" edge="1" parent="1" source="1kDg9G0LtiiuNaxr3lza-372" target="1kDg9G0LtiiuNaxr3lza-159">
          <mxGeometry width="100" height="100" relative="1" as="geometry">
            <mxPoint x="560" y="590" as="sourcePoint" />
            <mxPoint x="780" y="300" as="targetPoint" />
          </mxGeometry>
        </mxCell>
        <mxCell id="1kDg9G0LtiiuNaxr3lza-438" value="is in" style="edgeLabel;html=1;align=center;verticalAlign=middle;resizable=0;points=[];" vertex="1" connectable="0" parent="1kDg9G0LtiiuNaxr3lza-419">
          <mxGeometry x="0.0182" y="-3" relative="1" as="geometry">
            <mxPoint y="1" as="offset" />
          </mxGeometry>
        </mxCell>
        <mxCell id="1kDg9G0LtiiuNaxr3lza-420" value="" style="edgeStyle=entityRelationEdgeStyle;fontSize=12;html=1;endArrow=ERoneToMany;startArrow=ERmandOne;rounded=0;entryX=1;entryY=0.5;entryDx=0;entryDy=0;exitX=0;exitY=0.5;exitDx=0;exitDy=0;" edge="1" parent="1" source="3Ezc2zgL5UM-MFxwJ3yi-131" target="1kDg9G0LtiiuNaxr3lza-375">
          <mxGeometry width="100" height="100" relative="1" as="geometry">
            <mxPoint x="810" y="710" as="sourcePoint" />
            <mxPoint x="780" y="300" as="targetPoint" />
          </mxGeometry>
        </mxCell>
        <mxCell id="1kDg9G0LtiiuNaxr3lza-437" value="is in" style="edgeLabel;html=1;align=center;verticalAlign=middle;resizable=0;points=[];" vertex="1" connectable="0" parent="1kDg9G0LtiiuNaxr3lza-420">
          <mxGeometry x="0.1016" y="-1" relative="1" as="geometry">
            <mxPoint as="offset" />
          </mxGeometry>
        </mxCell>
        <mxCell id="1kDg9G0LtiiuNaxr3lza-421" value="" style="edgeStyle=entityRelationEdgeStyle;fontSize=12;html=1;endArrow=ERoneToMany;startArrow=ERmandOne;rounded=0;entryX=1;entryY=0.5;entryDx=0;entryDy=0;exitX=1;exitY=0.5;exitDx=0;exitDy=0;" edge="1" parent="1" source="1kDg9G0LtiiuNaxr3lza-372" target="3Ezc2zgL5UM-MFxwJ3yi-160">
          <mxGeometry width="100" height="100" relative="1" as="geometry">
            <mxPoint x="680" y="400" as="sourcePoint" />
            <mxPoint x="780" y="300" as="targetPoint" />
          </mxGeometry>
        </mxCell>
        <mxCell id="1kDg9G0LtiiuNaxr3lza-436" value="is in" style="edgeLabel;html=1;align=center;verticalAlign=middle;resizable=0;points=[];" vertex="1" connectable="0" parent="1kDg9G0LtiiuNaxr3lza-421">
          <mxGeometry x="0.0417" y="5" relative="1" as="geometry">
            <mxPoint as="offset" />
          </mxGeometry>
        </mxCell>
        <mxCell id="1kDg9G0LtiiuNaxr3lza-431" value="" style="edgeStyle=entityRelationEdgeStyle;fontSize=12;html=1;endArrow=ERoneToMany;startArrow=ERmandOne;rounded=0;entryX=0;entryY=0.5;entryDx=0;entryDy=0;exitX=0;exitY=0.5;exitDx=0;exitDy=0;" edge="1" parent="1" source="3Ezc2zgL5UM-MFxwJ3yi-157" target="1kDg9G0LtiiuNaxr3lza-102">
          <mxGeometry width="100" height="100" relative="1" as="geometry">
            <mxPoint x="470" y="150" as="sourcePoint" />
            <mxPoint x="530" y="210" as="targetPoint" />
            <Array as="points">
              <mxPoint x="840" y="350.00000000000045" />
              <mxPoint x="540" y="320" />
              <mxPoint x="770" y="250.00000000000045" />
              <mxPoint x="660" y="340.00000000000045" />
            </Array>
          </mxGeometry>
        </mxCell>
        <mxCell id="1kDg9G0LtiiuNaxr3lza-446" value="has" style="edgeLabel;html=1;align=center;verticalAlign=middle;resizable=0;points=[];" vertex="1" connectable="0" parent="1kDg9G0LtiiuNaxr3lza-431">
          <mxGeometry x="0.0216" relative="1" as="geometry">
            <mxPoint as="offset" />
          </mxGeometry>
        </mxCell>
      </root>
    </mxGraphModel>
  </diagram>
</mxfile>
